%TF.GenerationSoftware,KiCad,Pcbnew,9.0.1*%
%TF.CreationDate,2025-04-26T12:53:08+02:00*%
%TF.ProjectId,stm32_board,73746d33-325f-4626-9f61-72642e6b6963,rev?*%
%TF.SameCoordinates,Original*%
%TF.FileFunction,Soldermask,Top*%
%TF.FilePolarity,Negative*%
%FSLAX46Y46*%
G04 Gerber Fmt 4.6, Leading zero omitted, Abs format (unit mm)*
G04 Created by KiCad (PCBNEW 9.0.1) date 2025-04-26 12:53:08*
%MOMM*%
%LPD*%
G01*
G04 APERTURE LIST*
G04 Aperture macros list*
%AMRoundRect*
0 Rectangle with rounded corners*
0 $1 Rounding radius*
0 $2 $3 $4 $5 $6 $7 $8 $9 X,Y pos of 4 corners*
0 Add a 4 corners polygon primitive as box body*
4,1,4,$2,$3,$4,$5,$6,$7,$8,$9,$2,$3,0*
0 Add four circle primitives for the rounded corners*
1,1,$1+$1,$2,$3*
1,1,$1+$1,$4,$5*
1,1,$1+$1,$6,$7*
1,1,$1+$1,$8,$9*
0 Add four rect primitives between the rounded corners*
20,1,$1+$1,$2,$3,$4,$5,0*
20,1,$1+$1,$4,$5,$6,$7,0*
20,1,$1+$1,$6,$7,$8,$9,0*
20,1,$1+$1,$8,$9,$2,$3,0*%
G04 Aperture macros list end*
%ADD10RoundRect,0.140000X-0.170000X0.140000X-0.170000X-0.140000X0.170000X-0.140000X0.170000X0.140000X0*%
%ADD11C,2.200000*%
%ADD12O,0.800000X0.800000*%
%ADD13R,1.300000X0.450000*%
%ADD14O,1.800000X1.150000*%
%ADD15O,2.000000X1.450000*%
%ADD16RoundRect,0.140000X0.170000X-0.140000X0.170000X0.140000X-0.170000X0.140000X-0.170000X-0.140000X0*%
%ADD17RoundRect,0.218750X-0.256250X0.218750X-0.256250X-0.218750X0.256250X-0.218750X0.256250X0.218750X0*%
%ADD18RoundRect,0.135000X-0.185000X0.135000X-0.185000X-0.135000X0.185000X-0.135000X0.185000X0.135000X0*%
%ADD19RoundRect,0.140000X0.140000X0.170000X-0.140000X0.170000X-0.140000X-0.170000X0.140000X-0.170000X0*%
%ADD20RoundRect,0.075000X-0.662500X-0.075000X0.662500X-0.075000X0.662500X0.075000X-0.662500X0.075000X0*%
%ADD21RoundRect,0.075000X-0.075000X-0.662500X0.075000X-0.662500X0.075000X0.662500X-0.075000X0.662500X0*%
%ADD22RoundRect,0.135000X-0.135000X-0.185000X0.135000X-0.185000X0.135000X0.185000X-0.135000X0.185000X0*%
%ADD23RoundRect,0.135000X0.185000X-0.135000X0.185000X0.135000X-0.185000X0.135000X-0.185000X-0.135000X0*%
%ADD24R,1.700000X1.700000*%
%ADD25C,1.700000*%
%ADD26RoundRect,0.225000X-0.225000X-0.250000X0.225000X-0.250000X0.225000X0.250000X-0.225000X0.250000X0*%
%ADD27RoundRect,0.250000X-0.250000X-0.475000X0.250000X-0.475000X0.250000X0.475000X-0.250000X0.475000X0*%
%ADD28RoundRect,0.140000X-0.140000X-0.170000X0.140000X-0.170000X0.140000X0.170000X-0.140000X0.170000X0*%
%ADD29RoundRect,0.375000X-0.375000X0.625000X-0.375000X-0.625000X0.375000X-0.625000X0.375000X0.625000X0*%
%ADD30RoundRect,0.500000X-1.400000X0.500000X-1.400000X-0.500000X1.400000X-0.500000X1.400000X0.500000X0*%
%ADD31R,0.800000X1.000000*%
%ADD32C,0.900000*%
%ADD33R,1.500000X0.700000*%
%ADD34R,1.200000X1.400000*%
%ADD35RoundRect,0.135000X0.135000X0.185000X-0.135000X0.185000X-0.135000X-0.185000X0.135000X-0.185000X0*%
%ADD36RoundRect,0.250000X0.475000X-0.250000X0.475000X0.250000X-0.475000X0.250000X-0.475000X-0.250000X0*%
G04 APERTURE END LIST*
D10*
%TO.C,C2*%
X125000000Y-59000000D03*
X125000000Y-59960000D03*
%TD*%
D11*
%TO.C,H1*%
X139000000Y-51500000D03*
%TD*%
D12*
%TO.C,USB*%
X138100000Y-63300000D03*
X138100000Y-58300000D03*
D13*
X137000000Y-62100000D03*
X137000000Y-61450000D03*
X137000000Y-60800000D03*
X137000000Y-60150000D03*
X137000000Y-59500000D03*
D14*
X140850000Y-64675000D03*
D15*
X137050000Y-64525000D03*
X137050000Y-57075000D03*
D14*
X140850000Y-56925000D03*
%TD*%
D11*
%TO.C,H3*%
X100500000Y-77500000D03*
%TD*%
D16*
%TO.C,C5*%
X112650000Y-63635000D03*
X112650000Y-62675000D03*
%TD*%
D17*
%TO.C,FB1*%
X114000000Y-68212500D03*
X114000000Y-69787500D03*
%TD*%
D18*
%TO.C,R2*%
X129980000Y-59750000D03*
X129980000Y-60770000D03*
%TD*%
D19*
%TO.C,C3*%
X122140000Y-68170000D03*
X121180000Y-68170000D03*
%TD*%
D20*
%TO.C,U1*%
X114587500Y-59412500D03*
X114587500Y-59912500D03*
X114587500Y-60412500D03*
X114587500Y-60912500D03*
X114587500Y-61412500D03*
X114587500Y-61912500D03*
X114587500Y-62412500D03*
X114587500Y-62912500D03*
X114587500Y-63412500D03*
X114587500Y-63912500D03*
X114587500Y-64412500D03*
X114587500Y-64912500D03*
D21*
X116000000Y-66325000D03*
X116500000Y-66325000D03*
X117000000Y-66325000D03*
X117500000Y-66325000D03*
X118000000Y-66325000D03*
X118500000Y-66325000D03*
X119000000Y-66325000D03*
X119500000Y-66325000D03*
X120000000Y-66325000D03*
X120500000Y-66325000D03*
X121000000Y-66325000D03*
X121500000Y-66325000D03*
D20*
X122912500Y-64912500D03*
X122912500Y-64412500D03*
X122912500Y-63912500D03*
X122912500Y-63412500D03*
X122912500Y-62912500D03*
X122912500Y-62412500D03*
X122912500Y-61912500D03*
X122912500Y-61412500D03*
X122912500Y-60912500D03*
X122912500Y-60412500D03*
X122912500Y-59912500D03*
X122912500Y-59412500D03*
D21*
X121500000Y-58000000D03*
X121000000Y-58000000D03*
X120500000Y-58000000D03*
X120000000Y-58000000D03*
X119500000Y-58000000D03*
X119000000Y-58000000D03*
X118500000Y-58000000D03*
X118000000Y-58000000D03*
X117500000Y-58000000D03*
X117000000Y-58000000D03*
X116500000Y-58000000D03*
X116000000Y-58000000D03*
%TD*%
D22*
%TO.C,R5*%
X119480000Y-73500000D03*
X120500000Y-73500000D03*
%TD*%
%TO.C,R1*%
X110500000Y-55500000D03*
X111520000Y-55500000D03*
%TD*%
D23*
%TO.C,R3*%
X140000000Y-69500000D03*
X140000000Y-68480000D03*
%TD*%
D24*
%TO.C,UART*%
X116190000Y-50240000D03*
D25*
X113650000Y-50240000D03*
X111110000Y-50240000D03*
X108570000Y-50240000D03*
%TD*%
D26*
%TO.C,C4*%
X115225000Y-54500000D03*
X116775000Y-54500000D03*
%TD*%
D19*
%TO.C,C7*%
X112500000Y-70000000D03*
X111540000Y-70000000D03*
%TD*%
%TO.C,C6*%
X112480000Y-68000000D03*
X111520000Y-68000000D03*
%TD*%
D27*
%TO.C,C11*%
X129050000Y-65700000D03*
X130950000Y-65700000D03*
%TD*%
D28*
%TO.C,C1*%
X115540000Y-56000000D03*
X116500000Y-56000000D03*
%TD*%
D16*
%TO.C,C13*%
X112500000Y-59460000D03*
X112500000Y-58500000D03*
%TD*%
D17*
%TO.C,D1*%
X140000000Y-71500000D03*
X140000000Y-73075000D03*
%TD*%
D29*
%TO.C,U2*%
X133300000Y-68700000D03*
X131000000Y-68700000D03*
D30*
X131000000Y-75000000D03*
D29*
X128700000Y-68700000D03*
%TD*%
D24*
%TO.C,I2C*%
X114920000Y-78000000D03*
D25*
X117460000Y-78000000D03*
X120000000Y-78000000D03*
X122540000Y-78000000D03*
%TD*%
D31*
%TO.C,BOOT*%
X100110000Y-55500000D03*
X97900000Y-55500000D03*
D32*
X99000000Y-57650000D03*
X99000000Y-60650000D03*
D31*
X100110000Y-62800000D03*
X97900000Y-62800000D03*
D33*
X100760000Y-56900000D03*
X100760000Y-59900000D03*
X100760000Y-61400000D03*
%TD*%
D34*
%TO.C,Y1*%
X105780000Y-60020000D03*
X105780000Y-62220000D03*
X107480000Y-62220000D03*
X107480000Y-60020000D03*
%TD*%
D35*
%TO.C,R4*%
X118010000Y-73500000D03*
X116990000Y-73500000D03*
%TD*%
D24*
%TO.C,SWD*%
X130790000Y-50250000D03*
D25*
X128250000Y-50250000D03*
X125710000Y-50250000D03*
X123170000Y-50250000D03*
%TD*%
D36*
%TO.C,C12*%
X137000000Y-72900000D03*
X137000000Y-71000000D03*
%TD*%
D11*
%TO.C,H4*%
X100500000Y-51500000D03*
%TD*%
D16*
%TO.C,C9*%
X109480000Y-60110000D03*
X109480000Y-59150000D03*
%TD*%
D11*
%TO.C,H2*%
X139410000Y-78440000D03*
%TD*%
D16*
%TO.C,C10*%
X109500000Y-63000000D03*
X109500000Y-62040000D03*
%TD*%
D28*
%TO.C,C8*%
X115500000Y-69500000D03*
X116460000Y-69500000D03*
%TD*%
M02*
