%TF.GenerationSoftware,KiCad,Pcbnew,9.0.1*%
%TF.CreationDate,2025-04-26T12:53:08+02:00*%
%TF.ProjectId,stm32_board,73746d33-325f-4626-9f61-72642e6b6963,rev?*%
%TF.SameCoordinates,Original*%
%TF.FileFunction,Copper,L1,Top*%
%TF.FilePolarity,Positive*%
%FSLAX46Y46*%
G04 Gerber Fmt 4.6, Leading zero omitted, Abs format (unit mm)*
G04 Created by KiCad (PCBNEW 9.0.1) date 2025-04-26 12:53:08*
%MOMM*%
%LPD*%
G01*
G04 APERTURE LIST*
G04 Aperture macros list*
%AMRoundRect*
0 Rectangle with rounded corners*
0 $1 Rounding radius*
0 $2 $3 $4 $5 $6 $7 $8 $9 X,Y pos of 4 corners*
0 Add a 4 corners polygon primitive as box body*
4,1,4,$2,$3,$4,$5,$6,$7,$8,$9,$2,$3,0*
0 Add four circle primitives for the rounded corners*
1,1,$1+$1,$2,$3*
1,1,$1+$1,$4,$5*
1,1,$1+$1,$6,$7*
1,1,$1+$1,$8,$9*
0 Add four rect primitives between the rounded corners*
20,1,$1+$1,$2,$3,$4,$5,0*
20,1,$1+$1,$4,$5,$6,$7,0*
20,1,$1+$1,$6,$7,$8,$9,0*
20,1,$1+$1,$8,$9,$2,$3,0*%
G04 Aperture macros list end*
%TA.AperFunction,SMDPad,CuDef*%
%ADD10RoundRect,0.140000X-0.170000X0.140000X-0.170000X-0.140000X0.170000X-0.140000X0.170000X0.140000X0*%
%TD*%
%TA.AperFunction,SMDPad,CuDef*%
%ADD11R,1.300000X0.450000*%
%TD*%
%TA.AperFunction,HeatsinkPad*%
%ADD12O,1.800000X1.150000*%
%TD*%
%TA.AperFunction,HeatsinkPad*%
%ADD13O,2.000000X1.450000*%
%TD*%
%TA.AperFunction,SMDPad,CuDef*%
%ADD14RoundRect,0.140000X0.170000X-0.140000X0.170000X0.140000X-0.170000X0.140000X-0.170000X-0.140000X0*%
%TD*%
%TA.AperFunction,SMDPad,CuDef*%
%ADD15RoundRect,0.218750X-0.256250X0.218750X-0.256250X-0.218750X0.256250X-0.218750X0.256250X0.218750X0*%
%TD*%
%TA.AperFunction,SMDPad,CuDef*%
%ADD16RoundRect,0.135000X-0.185000X0.135000X-0.185000X-0.135000X0.185000X-0.135000X0.185000X0.135000X0*%
%TD*%
%TA.AperFunction,SMDPad,CuDef*%
%ADD17RoundRect,0.140000X0.140000X0.170000X-0.140000X0.170000X-0.140000X-0.170000X0.140000X-0.170000X0*%
%TD*%
%TA.AperFunction,SMDPad,CuDef*%
%ADD18RoundRect,0.075000X-0.662500X-0.075000X0.662500X-0.075000X0.662500X0.075000X-0.662500X0.075000X0*%
%TD*%
%TA.AperFunction,SMDPad,CuDef*%
%ADD19RoundRect,0.075000X-0.075000X-0.662500X0.075000X-0.662500X0.075000X0.662500X-0.075000X0.662500X0*%
%TD*%
%TA.AperFunction,SMDPad,CuDef*%
%ADD20RoundRect,0.135000X-0.135000X-0.185000X0.135000X-0.185000X0.135000X0.185000X-0.135000X0.185000X0*%
%TD*%
%TA.AperFunction,SMDPad,CuDef*%
%ADD21RoundRect,0.135000X0.185000X-0.135000X0.185000X0.135000X-0.185000X0.135000X-0.185000X-0.135000X0*%
%TD*%
%TA.AperFunction,ComponentPad*%
%ADD22R,1.700000X1.700000*%
%TD*%
%TA.AperFunction,ComponentPad*%
%ADD23C,1.700000*%
%TD*%
%TA.AperFunction,SMDPad,CuDef*%
%ADD24RoundRect,0.225000X-0.225000X-0.250000X0.225000X-0.250000X0.225000X0.250000X-0.225000X0.250000X0*%
%TD*%
%TA.AperFunction,SMDPad,CuDef*%
%ADD25RoundRect,0.250000X-0.250000X-0.475000X0.250000X-0.475000X0.250000X0.475000X-0.250000X0.475000X0*%
%TD*%
%TA.AperFunction,SMDPad,CuDef*%
%ADD26RoundRect,0.140000X-0.140000X-0.170000X0.140000X-0.170000X0.140000X0.170000X-0.140000X0.170000X0*%
%TD*%
%TA.AperFunction,SMDPad,CuDef*%
%ADD27RoundRect,0.375000X-0.375000X0.625000X-0.375000X-0.625000X0.375000X-0.625000X0.375000X0.625000X0*%
%TD*%
%TA.AperFunction,SMDPad,CuDef*%
%ADD28RoundRect,0.500000X-1.400000X0.500000X-1.400000X-0.500000X1.400000X-0.500000X1.400000X0.500000X0*%
%TD*%
%TA.AperFunction,SMDPad,CuDef*%
%ADD29R,0.800000X1.000000*%
%TD*%
%TA.AperFunction,SMDPad,CuDef*%
%ADD30R,1.500000X0.700000*%
%TD*%
%TA.AperFunction,SMDPad,CuDef*%
%ADD31R,1.200000X1.400000*%
%TD*%
%TA.AperFunction,SMDPad,CuDef*%
%ADD32RoundRect,0.135000X0.135000X0.185000X-0.135000X0.185000X-0.135000X-0.185000X0.135000X-0.185000X0*%
%TD*%
%TA.AperFunction,SMDPad,CuDef*%
%ADD33RoundRect,0.250000X0.475000X-0.250000X0.475000X0.250000X-0.475000X0.250000X-0.475000X-0.250000X0*%
%TD*%
%TA.AperFunction,ViaPad*%
%ADD34C,0.750000*%
%TD*%
%TA.AperFunction,ViaPad*%
%ADD35C,0.710000*%
%TD*%
%TA.AperFunction,ViaPad*%
%ADD36C,0.720000*%
%TD*%
%TA.AperFunction,ViaPad*%
%ADD37C,0.730000*%
%TD*%
%TA.AperFunction,Conductor*%
%ADD38C,0.300000*%
%TD*%
%TA.AperFunction,Conductor*%
%ADD39C,0.500000*%
%TD*%
%TA.AperFunction,Conductor*%
%ADD40C,0.200000*%
%TD*%
G04 APERTURE END LIST*
D10*
%TO.P,C2,1*%
%TO.N,+3.3V*%
X125000000Y-59000000D03*
%TO.P,C2,2*%
%TO.N,GND*%
X125000000Y-59960000D03*
%TD*%
D11*
%TO.P,USB,1,VBUS*%
%TO.N,VBUS*%
X137000000Y-62100000D03*
%TO.P,USB,2,D-*%
%TO.N,/USB_D-*%
X137000000Y-61450000D03*
%TO.P,USB,3,D+*%
%TO.N,/USB_D+*%
X137000000Y-60800000D03*
%TO.P,USB,4,ID*%
%TO.N,unconnected-(J1-ID-Pad4)*%
X137000000Y-60150000D03*
%TO.P,USB,5,GND*%
%TO.N,GND*%
X137000000Y-59500000D03*
D12*
%TO.P,USB,6,Shield*%
%TO.N,unconnected-(J1-Shield-Pad6)_2*%
X140850000Y-64675000D03*
D13*
%TO.N,unconnected-(J1-Shield-Pad6)_1*%
X137050000Y-64525000D03*
%TO.N,unconnected-(J1-Shield-Pad6)_3*%
X137050000Y-57075000D03*
D12*
%TO.N,unconnected-(J1-Shield-Pad6)*%
X140850000Y-56925000D03*
%TD*%
D14*
%TO.P,C5,1*%
%TO.N,+3.3VA*%
X112650000Y-63635000D03*
%TO.P,C5,2*%
%TO.N,GND*%
X112650000Y-62675000D03*
%TD*%
D15*
%TO.P,FB1,1*%
%TO.N,+3.3VA*%
X114000000Y-68212500D03*
%TO.P,FB1,2*%
%TO.N,+3.3V*%
X114000000Y-69787500D03*
%TD*%
D16*
%TO.P,R2,1*%
%TO.N,+3.3V*%
X129980000Y-59750000D03*
%TO.P,R2,2*%
%TO.N,/USB_D+*%
X129980000Y-60770000D03*
%TD*%
D17*
%TO.P,C3,1*%
%TO.N,+3.3V*%
X122140000Y-68170000D03*
%TO.P,C3,2*%
%TO.N,GND*%
X121180000Y-68170000D03*
%TD*%
D18*
%TO.P,U1,1,VBAT*%
%TO.N,+3.3V*%
X114587500Y-59412500D03*
%TO.P,U1,2,PC13*%
%TO.N,unconnected-(U1-PC13-Pad2)*%
X114587500Y-59912500D03*
%TO.P,U1,3,PC14*%
%TO.N,unconnected-(U1-PC14-Pad3)*%
X114587500Y-60412500D03*
%TO.P,U1,4,PC15*%
%TO.N,unconnected-(U1-PC15-Pad4)*%
X114587500Y-60912500D03*
%TO.P,U1,5,PD0*%
%TO.N,/HSE_IN*%
X114587500Y-61412500D03*
%TO.P,U1,6,PD1*%
%TO.N,/HSE_OUT*%
X114587500Y-61912500D03*
%TO.P,U1,7,NRST*%
%TO.N,/NRST*%
X114587500Y-62412500D03*
%TO.P,U1,8,VSSA*%
%TO.N,GND*%
X114587500Y-62912500D03*
%TO.P,U1,9,VDDA*%
%TO.N,+3.3VA*%
X114587500Y-63412500D03*
%TO.P,U1,10,PA0*%
%TO.N,unconnected-(U1-PA0-Pad10)*%
X114587500Y-63912500D03*
%TO.P,U1,11,PA1*%
%TO.N,unconnected-(U1-PA1-Pad11)*%
X114587500Y-64412500D03*
%TO.P,U1,12,PA2*%
%TO.N,unconnected-(U1-PA2-Pad12)*%
X114587500Y-64912500D03*
D19*
%TO.P,U1,13,PA3*%
%TO.N,unconnected-(U1-PA3-Pad13)*%
X116000000Y-66325000D03*
%TO.P,U1,14,PA4*%
%TO.N,unconnected-(U1-PA4-Pad14)*%
X116500000Y-66325000D03*
%TO.P,U1,15,PA5*%
%TO.N,unconnected-(U1-PA5-Pad15)*%
X117000000Y-66325000D03*
%TO.P,U1,16,PA6*%
%TO.N,unconnected-(U1-PA6-Pad16)*%
X117500000Y-66325000D03*
%TO.P,U1,17,PA7*%
%TO.N,unconnected-(U1-PA7-Pad17)*%
X118000000Y-66325000D03*
%TO.P,U1,18,PB0*%
%TO.N,unconnected-(U1-PB0-Pad18)*%
X118500000Y-66325000D03*
%TO.P,U1,19,PB1*%
%TO.N,unconnected-(U1-PB1-Pad19)*%
X119000000Y-66325000D03*
%TO.P,U1,20,PB2*%
%TO.N,unconnected-(U1-PB2-Pad20)*%
X119500000Y-66325000D03*
%TO.P,U1,21,PB10*%
%TO.N,/I2C2_SCL*%
X120000000Y-66325000D03*
%TO.P,U1,22,PB11*%
%TO.N,/I2C2_SDA*%
X120500000Y-66325000D03*
%TO.P,U1,23,VSS*%
%TO.N,GND*%
X121000000Y-66325000D03*
%TO.P,U1,24,VDD*%
%TO.N,+3.3V*%
X121500000Y-66325000D03*
D18*
%TO.P,U1,25,PB12*%
%TO.N,unconnected-(U1-PB12-Pad25)*%
X122912500Y-64912500D03*
%TO.P,U1,26,PB13*%
%TO.N,unconnected-(U1-PB13-Pad26)*%
X122912500Y-64412500D03*
%TO.P,U1,27,PB14*%
%TO.N,unconnected-(U1-PB14-Pad27)*%
X122912500Y-63912500D03*
%TO.P,U1,28,PB15*%
%TO.N,unconnected-(U1-PB15-Pad28)*%
X122912500Y-63412500D03*
%TO.P,U1,29,PA8*%
%TO.N,unconnected-(U1-PA8-Pad29)*%
X122912500Y-62912500D03*
%TO.P,U1,30,PA9*%
%TO.N,unconnected-(U1-PA9-Pad30)*%
X122912500Y-62412500D03*
%TO.P,U1,31,PA10*%
%TO.N,unconnected-(U1-PA10-Pad31)*%
X122912500Y-61912500D03*
%TO.P,U1,32,PA11*%
%TO.N,/USB_D-*%
X122912500Y-61412500D03*
%TO.P,U1,33,PA12*%
%TO.N,/USB_D+*%
X122912500Y-60912500D03*
%TO.P,U1,34,PA13*%
%TO.N,/SWDIO*%
X122912500Y-60412500D03*
%TO.P,U1,35,VSS*%
%TO.N,GND*%
X122912500Y-59912500D03*
%TO.P,U1,36,VDD*%
%TO.N,+3.3V*%
X122912500Y-59412500D03*
D19*
%TO.P,U1,37,PA14*%
%TO.N,/SWCLK*%
X121500000Y-58000000D03*
%TO.P,U1,38,PA15*%
%TO.N,unconnected-(U1-PA15-Pad38)*%
X121000000Y-58000000D03*
%TO.P,U1,39,PB3*%
%TO.N,unconnected-(U1-PB3-Pad39)*%
X120500000Y-58000000D03*
%TO.P,U1,40,PB4*%
%TO.N,unconnected-(U1-PB4-Pad40)*%
X120000000Y-58000000D03*
%TO.P,U1,41,PB5*%
%TO.N,unconnected-(U1-PB5-Pad41)*%
X119500000Y-58000000D03*
%TO.P,U1,42,PB6*%
%TO.N,/USART1_TX*%
X119000000Y-58000000D03*
%TO.P,U1,43,PB7*%
%TO.N,/USART1_RX*%
X118500000Y-58000000D03*
%TO.P,U1,44,BOOT0*%
%TO.N,/BOOT0*%
X118000000Y-58000000D03*
%TO.P,U1,45,PB8*%
%TO.N,unconnected-(U1-PB8-Pad45)*%
X117500000Y-58000000D03*
%TO.P,U1,46,PB9*%
%TO.N,unconnected-(U1-PB9-Pad46)*%
X117000000Y-58000000D03*
%TO.P,U1,47,VSS*%
%TO.N,GND*%
X116500000Y-58000000D03*
%TO.P,U1,48,VDD*%
%TO.N,+3.3V*%
X116000000Y-58000000D03*
%TD*%
D20*
%TO.P,R5,1*%
%TO.N,+3.3V*%
X119480000Y-73500000D03*
%TO.P,R5,2*%
%TO.N,/I2C2_SDA*%
X120500000Y-73500000D03*
%TD*%
%TO.P,R1,1*%
%TO.N,/SW_BOOT0*%
X110500000Y-55500000D03*
%TO.P,R1,2*%
%TO.N,/BOOT0*%
X111520000Y-55500000D03*
%TD*%
D21*
%TO.P,R3,1*%
%TO.N,/PWR_LED_K*%
X140000000Y-69500000D03*
%TO.P,R3,2*%
%TO.N,GND*%
X140000000Y-68480000D03*
%TD*%
D22*
%TO.P,UART,1,Pin_1*%
%TO.N,+3.3V*%
X116190000Y-50240000D03*
D23*
%TO.P,UART,2,Pin_2*%
%TO.N,/USART1_TX*%
X113650000Y-50240000D03*
%TO.P,UART,3,Pin_3*%
%TO.N,/USART1_RX*%
X111110000Y-50240000D03*
%TO.P,UART,4,Pin_4*%
%TO.N,GND*%
X108570000Y-50240000D03*
%TD*%
D24*
%TO.P,C4,1*%
%TO.N,+3.3V*%
X115225000Y-54500000D03*
%TO.P,C4,2*%
%TO.N,GND*%
X116775000Y-54500000D03*
%TD*%
D17*
%TO.P,C7,1*%
%TO.N,+3.3V*%
X112500000Y-70000000D03*
%TO.P,C7,2*%
%TO.N,GND*%
X111540000Y-70000000D03*
%TD*%
%TO.P,C6,1*%
%TO.N,+3.3VA*%
X112480000Y-68000000D03*
%TO.P,C6,2*%
%TO.N,GND*%
X111520000Y-68000000D03*
%TD*%
D25*
%TO.P,C11,1*%
%TO.N,VBUS*%
X129050000Y-65700000D03*
%TO.P,C11,2*%
%TO.N,GND*%
X130950000Y-65700000D03*
%TD*%
D26*
%TO.P,C1,1*%
%TO.N,+3.3V*%
X115540000Y-56000000D03*
%TO.P,C1,2*%
%TO.N,GND*%
X116500000Y-56000000D03*
%TD*%
D14*
%TO.P,C13,1*%
%TO.N,+3.3V*%
X112500000Y-59460000D03*
%TO.P,C13,2*%
%TO.N,GND*%
X112500000Y-58500000D03*
%TD*%
D15*
%TO.P,D1,1,K*%
%TO.N,/PWR_LED_K*%
X140000000Y-71500000D03*
%TO.P,D1,2,A*%
%TO.N,+3.3V*%
X140000000Y-73075000D03*
%TD*%
D27*
%TO.P,U2,1,GND*%
%TO.N,GND*%
X133300000Y-68700000D03*
%TO.P,U2,2,VO*%
%TO.N,+3.3V*%
X131000000Y-68700000D03*
D28*
X131000000Y-75000000D03*
D27*
%TO.P,U2,3,VI*%
%TO.N,VBUS*%
X128700000Y-68700000D03*
%TD*%
D22*
%TO.P,I2C,1,Pin_1*%
%TO.N,+3.3V*%
X114920000Y-78000000D03*
D23*
%TO.P,I2C,2,Pin_2*%
%TO.N,/I2C2_SCL*%
X117460000Y-78000000D03*
%TO.P,I2C,3,Pin_3*%
%TO.N,/I2C2_SDA*%
X120000000Y-78000000D03*
%TO.P,I2C,4,Pin_4*%
%TO.N,GND*%
X122540000Y-78000000D03*
%TD*%
D29*
%TO.P,BOOT,*%
%TO.N,*%
X100110000Y-55500000D03*
X97900000Y-55500000D03*
X100110000Y-62800000D03*
X97900000Y-62800000D03*
D30*
%TO.P,BOOT,1,A*%
%TO.N,GND*%
X100760000Y-56900000D03*
%TO.P,BOOT,2,B*%
%TO.N,/SW_BOOT0*%
X100760000Y-59900000D03*
%TO.P,BOOT,3,C*%
%TO.N,+3.3V*%
X100760000Y-61400000D03*
%TD*%
D31*
%TO.P,Y1,1,1*%
%TO.N,/HSE_IN*%
X105780000Y-60020000D03*
%TO.P,Y1,2,2*%
%TO.N,GND*%
X105780000Y-62220000D03*
%TO.P,Y1,3,3*%
%TO.N,/HSE_OUT*%
X107480000Y-62220000D03*
%TO.P,Y1,4,4*%
%TO.N,GND*%
X107480000Y-60020000D03*
%TD*%
D32*
%TO.P,R4,1*%
%TO.N,+3.3V*%
X118010000Y-73500000D03*
%TO.P,R4,2*%
%TO.N,/I2C2_SCL*%
X116990000Y-73500000D03*
%TD*%
D22*
%TO.P,SWD,1,Pin_1*%
%TO.N,+3.3V*%
X130790000Y-50250000D03*
D23*
%TO.P,SWD,2,Pin_2*%
%TO.N,/SWDIO*%
X128250000Y-50250000D03*
%TO.P,SWD,3,Pin_3*%
%TO.N,/SWCLK*%
X125710000Y-50250000D03*
%TO.P,SWD,4,Pin_4*%
%TO.N,GND*%
X123170000Y-50250000D03*
%TD*%
D33*
%TO.P,C12,1*%
%TO.N,+3.3V*%
X137000000Y-72900000D03*
%TO.P,C12,2*%
%TO.N,GND*%
X137000000Y-71000000D03*
%TD*%
D14*
%TO.P,C9,1*%
%TO.N,/HSE_IN*%
X109480000Y-60110000D03*
%TO.P,C9,2*%
%TO.N,GND*%
X109480000Y-59150000D03*
%TD*%
%TO.P,C10,1*%
%TO.N,/HSE_OUT*%
X109500000Y-63000000D03*
%TO.P,C10,2*%
%TO.N,GND*%
X109500000Y-62040000D03*
%TD*%
D26*
%TO.P,C8,1*%
%TO.N,/NRST*%
X115500000Y-69500000D03*
%TO.P,C8,2*%
%TO.N,GND*%
X116460000Y-69500000D03*
%TD*%
D34*
%TO.N,GND*%
X101360000Y-56040000D03*
D35*
X117540000Y-69010000D03*
D34*
X133760000Y-70430000D03*
X110330000Y-62030000D03*
X141000000Y-68480000D03*
X132240000Y-65020000D03*
X121010000Y-64930000D03*
X109480000Y-58220000D03*
X116500000Y-59250000D03*
X115920000Y-63360000D03*
D36*
X111530000Y-66940000D03*
D34*
X132200000Y-66380000D03*
X125830000Y-59970000D03*
X108580000Y-52430000D03*
X112490000Y-57550000D03*
X132880000Y-70430000D03*
D35*
X105740000Y-63790000D03*
D34*
X135170000Y-58960000D03*
D36*
X111560000Y-70980000D03*
D34*
X123180000Y-52310000D03*
X138410000Y-71050000D03*
D37*
%TO.N,+3.3V*%
X116100000Y-75010000D03*
D35*
X121660000Y-72010000D03*
D37*
X117690000Y-74980000D03*
D35*
X119480000Y-72020000D03*
%TD*%
D38*
%TO.N,GND*%
X116775000Y-55225000D02*
X116775000Y-54500000D01*
D39*
X112500000Y-57560000D02*
X112490000Y-57550000D01*
D38*
X137000000Y-59500000D02*
X136320000Y-59500000D01*
X124000000Y-60000000D02*
X124040000Y-59960000D01*
X121000000Y-66325000D02*
X121000000Y-67990000D01*
D39*
X111540000Y-70000000D02*
X111540000Y-70960000D01*
D38*
X114587500Y-62912500D02*
X113612500Y-62912500D01*
D39*
X108580000Y-50250000D02*
X108570000Y-50240000D01*
D38*
X115472500Y-62912500D02*
X115920000Y-63360000D01*
D39*
X100760000Y-56900000D02*
X100760000Y-56640000D01*
X110320000Y-62040000D02*
X110330000Y-62030000D01*
X116460000Y-69500000D02*
X117050000Y-69500000D01*
D38*
X116500000Y-55500000D02*
X116775000Y-55225000D01*
D39*
X111520000Y-66950000D02*
X111530000Y-66940000D01*
D38*
X124040000Y-59960000D02*
X125000000Y-59960000D01*
D39*
X117050000Y-69500000D02*
X117540000Y-69010000D01*
D38*
X136320000Y-59500000D02*
X135780000Y-58960000D01*
D39*
X100760000Y-56640000D02*
X101360000Y-56040000D01*
D38*
X113612500Y-62912500D02*
X113375000Y-62675000D01*
X113375000Y-62675000D02*
X112650000Y-62675000D01*
D39*
X109480000Y-59150000D02*
X109480000Y-58220000D01*
D38*
X122912500Y-59912500D02*
X123912500Y-59912500D01*
X121000000Y-64940000D02*
X121010000Y-64930000D01*
X121000000Y-67990000D02*
X121180000Y-68170000D01*
X114587500Y-62912500D02*
X115472500Y-62912500D01*
D39*
X111540000Y-70960000D02*
X111560000Y-70980000D01*
X105780000Y-63750000D02*
X105740000Y-63790000D01*
X109500000Y-62040000D02*
X110320000Y-62040000D01*
X109490000Y-58210000D02*
X109480000Y-58220000D01*
D38*
X125820000Y-59960000D02*
X125830000Y-59970000D01*
X116500000Y-58000000D02*
X116500000Y-59250000D01*
D39*
X105780000Y-62220000D02*
X105780000Y-63750000D01*
X108580000Y-52430000D02*
X108580000Y-50250000D01*
D38*
X116500000Y-58000000D02*
X116500000Y-56000000D01*
X125000000Y-59960000D02*
X125820000Y-59960000D01*
X121000000Y-66325000D02*
X121000000Y-64940000D01*
D39*
X108350000Y-59150000D02*
X109480000Y-59150000D01*
D38*
X135780000Y-58960000D02*
X135170000Y-58960000D01*
D39*
X111520000Y-68000000D02*
X111520000Y-66950000D01*
D38*
X116500000Y-56000000D02*
X116500000Y-55500000D01*
X123912500Y-59912500D02*
X124000000Y-60000000D01*
D39*
X123180000Y-52310000D02*
X123180000Y-50260000D01*
X123180000Y-50260000D02*
X123170000Y-50250000D01*
X112500000Y-58500000D02*
X112500000Y-57560000D01*
X107480000Y-60020000D02*
X108350000Y-59150000D01*
X140000000Y-68480000D02*
X141000000Y-68480000D01*
D38*
X116500000Y-56040000D02*
X116460000Y-56000000D01*
D39*
%TO.N,+3.3V*%
X102610000Y-61400000D02*
X100760000Y-61400000D01*
X113515000Y-55255000D02*
X113500000Y-55270000D01*
D38*
X115540000Y-56540000D02*
X115540000Y-56000000D01*
D39*
X112500000Y-70000000D02*
X113787500Y-70000000D01*
X141425000Y-73075000D02*
X141950000Y-72550000D01*
X116100000Y-75010000D02*
X114170000Y-75010000D01*
X114920000Y-75970000D02*
X114920000Y-78000000D01*
X124260000Y-72010000D02*
X124240000Y-71990000D01*
D38*
X114587500Y-59412500D02*
X113500000Y-59412500D01*
D39*
X139825000Y-72900000D02*
X140000000Y-73075000D01*
D38*
X121850000Y-67510000D02*
X122170000Y-67510000D01*
D39*
X138480000Y-72900000D02*
X139825000Y-72900000D01*
X122570000Y-68170000D02*
X122140000Y-68170000D01*
D38*
X113500000Y-59412500D02*
X112547500Y-59412500D01*
D39*
X114000000Y-74840000D02*
X114000000Y-69787500D01*
X113500000Y-55270000D02*
X113500000Y-59412500D01*
D38*
X116000000Y-58000000D02*
X116000000Y-57000000D01*
D39*
X111490000Y-57280000D02*
X113515000Y-55255000D01*
D38*
X122170000Y-67510000D02*
X122170000Y-67660000D01*
X115540000Y-55540000D02*
X115225000Y-55225000D01*
D39*
X140000000Y-73075000D02*
X141425000Y-73075000D01*
X119480000Y-72340000D02*
X119480000Y-73500000D01*
X139050000Y-55990000D02*
X136680000Y-53620000D01*
X102610000Y-60710000D02*
X106040000Y-57280000D01*
X114000000Y-74840000D02*
X106410000Y-74840000D01*
X121680000Y-71990000D02*
X121660000Y-72010000D01*
D38*
X123587500Y-59412500D02*
X124000000Y-59000000D01*
D39*
X127790000Y-77750000D02*
X124260000Y-74220000D01*
D38*
X116000000Y-57000000D02*
X115540000Y-56540000D01*
D39*
X135270000Y-77750000D02*
X127790000Y-77750000D01*
D38*
X128100000Y-59750000D02*
X129980000Y-59750000D01*
D39*
X102610000Y-61400000D02*
X102610000Y-60710000D01*
X139050000Y-66600000D02*
X139050000Y-55990000D01*
X138480000Y-72900000D02*
X138480000Y-74540000D01*
X119480000Y-73500000D02*
X118010000Y-73500000D01*
X114270000Y-54500000D02*
X115225000Y-54500000D01*
X141950000Y-68100000D02*
X140450000Y-66600000D01*
X113787500Y-70000000D02*
X114000000Y-69787500D01*
X124260000Y-72010000D02*
X124260000Y-69840000D01*
X116190000Y-50240000D02*
X118170000Y-50240000D01*
X129980000Y-54860000D02*
X129980000Y-59750000D01*
X124240000Y-71990000D02*
X121680000Y-71990000D01*
X114170000Y-75010000D02*
X114170000Y-75220000D01*
D38*
X122912500Y-59412500D02*
X123587500Y-59412500D01*
D39*
X113515000Y-55255000D02*
X114270000Y-54500000D01*
X102620000Y-71050000D02*
X102620000Y-61410000D01*
D38*
X125000000Y-59000000D02*
X127350000Y-59000000D01*
D39*
X130790000Y-52900000D02*
X130790000Y-50250000D01*
D38*
X122170000Y-67660000D02*
X122140000Y-67690000D01*
D39*
X124260000Y-74220000D02*
X124260000Y-72010000D01*
X131270000Y-53570000D02*
X129980000Y-54860000D01*
X137000000Y-72900000D02*
X138480000Y-72900000D01*
X136680000Y-53620000D02*
X131270000Y-53620000D01*
X124260000Y-69840000D02*
X124240000Y-69840000D01*
X141950000Y-72550000D02*
X141950000Y-68100000D01*
D38*
X115225000Y-55225000D02*
X115225000Y-54500000D01*
D39*
X118010000Y-74660000D02*
X117690000Y-74980000D01*
X120242010Y-48167990D02*
X128707990Y-48167990D01*
D38*
X121500000Y-66325000D02*
X121500000Y-67160000D01*
D39*
X128707990Y-48167990D02*
X130790000Y-50250000D01*
X102620000Y-61410000D02*
X102610000Y-61400000D01*
X118010000Y-73500000D02*
X118010000Y-74660000D01*
X124240000Y-69840000D02*
X122570000Y-68170000D01*
X118170000Y-50240000D02*
X120242010Y-48167990D01*
X131270000Y-53560000D02*
X131270000Y-53380000D01*
X131270000Y-53560000D02*
X131270000Y-53570000D01*
X140450000Y-66600000D02*
X139050000Y-66600000D01*
X106040000Y-57280000D02*
X111490000Y-57280000D01*
D38*
X124000000Y-59000000D02*
X125000000Y-59000000D01*
D39*
X114170000Y-75220000D02*
X114920000Y-75970000D01*
D38*
X112547500Y-59412500D02*
X112500000Y-59460000D01*
D39*
X131270000Y-53380000D02*
X130790000Y-52900000D01*
X106410000Y-74840000D02*
X102620000Y-71050000D01*
D38*
X122140000Y-67690000D02*
X122140000Y-68170000D01*
D39*
X114170000Y-75010000D02*
X114000000Y-74840000D01*
X131270000Y-53620000D02*
X131270000Y-53560000D01*
X138480000Y-74540000D02*
X135270000Y-77750000D01*
D38*
X121500000Y-67160000D02*
X121850000Y-67510000D01*
X127350000Y-59000000D02*
X128100000Y-59750000D01*
X115540000Y-56000000D02*
X115540000Y-55540000D01*
%TO.N,+3.3VA*%
X113712500Y-63412500D02*
X113375000Y-63750000D01*
D39*
X112480000Y-63805000D02*
X112650000Y-63635000D01*
D38*
X114587500Y-63412500D02*
X113712500Y-63412500D01*
X113260000Y-63635000D02*
X112650000Y-63635000D01*
X113375000Y-63750000D02*
X113260000Y-63635000D01*
D39*
X112480000Y-68000000D02*
X112480000Y-63805000D01*
X114000000Y-68212500D02*
X112692500Y-68212500D01*
X112692500Y-68212500D02*
X112480000Y-68000000D01*
D38*
%TO.N,/NRST*%
X117120000Y-62110000D02*
X117150000Y-62080000D01*
X116350000Y-62110000D02*
X117120000Y-62110000D01*
X114587500Y-62412500D02*
X116047500Y-62412500D01*
X115500000Y-67650000D02*
X115500000Y-69500000D01*
X114930000Y-67080000D02*
X115500000Y-67650000D01*
X116047500Y-62412500D02*
X116350000Y-62110000D01*
X117150000Y-63690000D02*
X114930000Y-65910000D01*
X114930000Y-65910000D02*
X114930000Y-67080000D01*
X117150000Y-62080000D02*
X117150000Y-63690000D01*
%TO.N,/HSE_IN*%
X112135000Y-60110000D02*
X109480000Y-60110000D01*
X106120000Y-61090000D02*
X105780000Y-60750000D01*
X113437500Y-61412500D02*
X112135000Y-60110000D01*
X114587500Y-61412500D02*
X113437500Y-61412500D01*
X109480000Y-60110000D02*
X108540000Y-61050000D01*
X108540000Y-61050000D02*
X108540000Y-61090000D01*
X108540000Y-61090000D02*
X106120000Y-61090000D01*
X105780000Y-60750000D02*
X105780000Y-60020000D01*
%TO.N,/HSE_OUT*%
X109500000Y-63000000D02*
X109140000Y-63000000D01*
X109140000Y-63000000D02*
X108360000Y-62220000D01*
X114587500Y-61912500D02*
X111547500Y-61912500D01*
X108360000Y-62220000D02*
X107480000Y-62220000D01*
X110460000Y-63000000D02*
X109500000Y-63000000D01*
X111547500Y-61912500D02*
X110460000Y-63000000D01*
%TO.N,VBUS*%
X137000000Y-62100000D02*
X134470000Y-62100000D01*
X134470000Y-62100000D02*
X134450000Y-62120000D01*
%TO.N,/PWR_LED_K*%
X140000000Y-71500000D02*
X140000000Y-69500000D01*
D40*
%TO.N,/USB_D-*%
X122912500Y-61412500D02*
X124018751Y-61412500D01*
X124018751Y-61412500D02*
X124043751Y-61387500D01*
X124043751Y-61387500D02*
X135500000Y-61387500D01*
X135500000Y-61387500D02*
X135562500Y-61450000D01*
X135562500Y-61450000D02*
X137000000Y-61450000D01*
D38*
%TO.N,/USB_D+*%
X137000000Y-60800000D02*
X135637500Y-60800000D01*
D40*
X124018751Y-60912500D02*
X124043751Y-60937500D01*
X124043751Y-60937500D02*
X135500000Y-60937500D01*
X122912500Y-60912500D02*
X124018751Y-60912500D01*
D38*
X135637500Y-60800000D02*
X135500000Y-60937500D01*
%TO.N,/SWCLK*%
X125730000Y-51500000D02*
X125710000Y-51480000D01*
X121500000Y-58000000D02*
X121500000Y-57200000D01*
X125710000Y-51480000D02*
X125710000Y-50250000D01*
X125730000Y-52970000D02*
X125730000Y-51500000D01*
X121500000Y-57200000D02*
X125730000Y-52970000D01*
%TO.N,/SWDIO*%
X122912500Y-60412500D02*
X121747500Y-60412500D01*
X128250000Y-51480000D02*
X128250000Y-50250000D01*
X121747500Y-60412500D02*
X121740000Y-60420000D01*
X121740000Y-59242966D02*
X128270000Y-52712966D01*
X128270000Y-52712966D02*
X128270000Y-51500000D01*
X128270000Y-51500000D02*
X128250000Y-51480000D01*
X121740000Y-60420000D02*
X121740000Y-59242966D01*
%TO.N,/USART1_RX*%
X119401000Y-52221000D02*
X113091000Y-52221000D01*
X119780000Y-55311480D02*
X119780000Y-52600000D01*
X118500000Y-57008520D02*
X118499000Y-57007520D01*
X118500000Y-58000000D02*
X118500000Y-57008520D01*
X119780000Y-52600000D02*
X119401000Y-52221000D01*
X118499000Y-56592480D02*
X119780000Y-55311480D01*
X118499000Y-57007520D02*
X118499000Y-56592480D01*
X113091000Y-52221000D02*
X111110000Y-50240000D01*
%TO.N,/USART1_TX*%
X114780000Y-51510000D02*
X114780000Y-51370000D01*
X119000000Y-58000000D02*
X119000000Y-56800000D01*
X120480000Y-55320000D02*
X120480000Y-52530000D01*
X120480000Y-52530000D02*
X119670000Y-51720000D01*
X114780000Y-51370000D02*
X113650000Y-50240000D01*
X114990000Y-51720000D02*
X114780000Y-51510000D01*
X119000000Y-56800000D02*
X120480000Y-55320000D01*
X119670000Y-51720000D02*
X114990000Y-51720000D01*
%TO.N,/I2C2_SDA*%
X120500000Y-66325000D02*
X120500000Y-77500000D01*
X120500000Y-77500000D02*
X120000000Y-78000000D01*
%TO.N,/I2C2_SCL*%
X120000000Y-67720000D02*
X116870000Y-70850000D01*
X120000000Y-66325000D02*
X120000000Y-67720000D01*
X116870000Y-77410000D02*
X117460000Y-78000000D01*
X116870000Y-70850000D02*
X116870000Y-77410000D01*
%TO.N,/BOOT0*%
X117990000Y-53110000D02*
X117970000Y-53090000D01*
X118000000Y-57217041D02*
X117990000Y-57207041D01*
X111570000Y-53090000D02*
X111570000Y-53270000D01*
X111520000Y-53320000D02*
X111520000Y-55500000D01*
X117990000Y-57207041D02*
X117990000Y-53110000D01*
X118000000Y-58000000D02*
X118000000Y-57217041D01*
X111570000Y-53270000D02*
X111520000Y-53320000D01*
X117970000Y-53090000D02*
X111570000Y-53090000D01*
%TO.N,/SW_BOOT0*%
X106390000Y-55500000D02*
X101990000Y-59900000D01*
X101990000Y-59900000D02*
X100760000Y-59900000D01*
X110500000Y-55500000D02*
X106390000Y-55500000D01*
%TD*%
%TA.AperFunction,Conductor*%
%TO.N,+3.3V*%
G36*
X131642038Y-67677749D02*
G01*
X131706429Y-67704866D01*
X131745938Y-67762492D01*
X131752033Y-67798637D01*
X131819999Y-71429998D01*
X131820000Y-71430000D01*
X132229999Y-72080000D01*
X132230000Y-72080000D01*
X138080964Y-72080000D01*
X138108556Y-72088102D01*
X138136851Y-72093308D01*
X138144496Y-72098655D01*
X138148003Y-72099685D01*
X138165773Y-72113537D01*
X138251742Y-72194133D01*
X138287186Y-72254345D01*
X138290914Y-72282434D01*
X138318861Y-73884741D01*
X138300349Y-73952113D01*
X138266848Y-73987881D01*
X134733756Y-76505941D01*
X134667738Y-76528820D01*
X134658562Y-76528921D01*
X129355240Y-76390917D01*
X129290512Y-76370680D01*
X129053766Y-76215570D01*
X128795499Y-76046361D01*
X128750210Y-75993156D01*
X128739458Y-75943652D01*
X128723183Y-73950000D01*
X128700433Y-71163085D01*
X128719570Y-71095889D01*
X128738114Y-71073049D01*
X130010000Y-69840000D01*
X129980696Y-68052459D01*
X129999279Y-67985106D01*
X130005471Y-67976038D01*
X130297389Y-67586814D01*
X130353358Y-67544995D01*
X130410564Y-67538007D01*
X131642038Y-67677749D01*
G37*
%TD.AperFunction*%
%TD*%
%TA.AperFunction,Conductor*%
%TO.N,GND*%
G36*
X132301617Y-64599685D02*
G01*
X132314671Y-64609337D01*
X132626097Y-64872851D01*
X132664559Y-64931182D01*
X132670000Y-64967511D01*
X132670000Y-66820000D01*
X133070000Y-67090000D01*
X133826642Y-67090000D01*
X133888855Y-67106736D01*
X134300808Y-67345669D01*
X134348923Y-67396332D01*
X134362511Y-67448381D01*
X134449999Y-69829998D01*
X134450000Y-69830000D01*
X135049998Y-70119999D01*
X135049997Y-70119999D01*
X135050000Y-70120000D01*
X138561581Y-70129891D01*
X138628563Y-70149765D01*
X138631629Y-70151813D01*
X138837598Y-70293861D01*
X138881610Y-70348126D01*
X138891178Y-70393643D01*
X138908992Y-71355586D01*
X138900233Y-71387597D01*
X138892434Y-71419823D01*
X138890871Y-71421812D01*
X138890552Y-71422979D01*
X138870632Y-71447578D01*
X138726054Y-71585584D01*
X138663969Y-71617634D01*
X138640157Y-71619888D01*
X138323352Y-71619178D01*
X138289118Y-71614278D01*
X138288942Y-71614227D01*
X138288721Y-71614163D01*
X138286944Y-71613641D01*
X138286943Y-71613641D01*
X138237664Y-71599168D01*
X138237665Y-71599164D01*
X138237593Y-71599150D01*
X138236978Y-71598969D01*
X138232427Y-71597534D01*
X138228319Y-71596151D01*
X138224464Y-71595153D01*
X138224311Y-71595109D01*
X138219124Y-71594363D01*
X138214349Y-71593581D01*
X138171732Y-71585741D01*
X138151208Y-71584599D01*
X138080965Y-71574500D01*
X138080964Y-71574500D01*
X134275950Y-71574500D01*
X134208911Y-71554815D01*
X134166322Y-71508446D01*
X134055023Y-71297881D01*
X133850000Y-70910000D01*
X133709827Y-70904902D01*
X132798709Y-70871771D01*
X132732429Y-70849663D01*
X132715534Y-70835534D01*
X132346121Y-70466121D01*
X132312636Y-70404798D01*
X132309803Y-70378921D01*
X132300000Y-67830000D01*
X132299999Y-67829999D01*
X132289702Y-67812294D01*
X132266482Y-67788059D01*
X132253093Y-67742473D01*
X132250496Y-67714583D01*
X132244401Y-67678438D01*
X132226502Y-67605686D01*
X132162859Y-67476647D01*
X132162852Y-67476638D01*
X132162850Y-67476633D01*
X132149322Y-67456902D01*
X132123737Y-67419585D01*
X132123380Y-67419058D01*
X132123353Y-67419023D01*
X132025926Y-67313137D01*
X131902622Y-67238991D01*
X131863295Y-67222430D01*
X131838232Y-67211875D01*
X131838229Y-67211874D01*
X131838224Y-67211872D01*
X131699043Y-67175473D01*
X131699027Y-67175470D01*
X130467564Y-67035730D01*
X130467560Y-67035730D01*
X130460717Y-67035759D01*
X130374184Y-67036130D01*
X130352172Y-67029768D01*
X130329337Y-67027941D01*
X130311540Y-67018026D01*
X130307061Y-67016732D01*
X130298504Y-67010764D01*
X130280070Y-66996719D01*
X130238675Y-66940433D01*
X130234282Y-66870701D01*
X130254935Y-66825154D01*
X130295532Y-66769335D01*
X130302352Y-66759723D01*
X130305658Y-66754947D01*
X130312313Y-66745088D01*
X130373486Y-66614860D01*
X130393890Y-66548036D01*
X130415896Y-66405850D01*
X130434210Y-64702667D01*
X130454614Y-64635843D01*
X130507907Y-64590658D01*
X130558203Y-64580000D01*
X132234578Y-64580000D01*
X132301617Y-64599685D01*
G37*
%TD.AperFunction*%
%TD*%
%TA.AperFunction,Conductor*%
%TO.N,VBUS*%
G36*
X135261945Y-61988489D02*
G01*
X135263620Y-61988049D01*
X135298399Y-61994057D01*
X135310813Y-61998086D01*
X135330716Y-62009577D01*
X135416438Y-62032546D01*
X135483442Y-62050500D01*
X135483443Y-62050500D01*
X135975165Y-62050500D01*
X136042204Y-62070185D01*
X136049476Y-62075233D01*
X136107668Y-62118795D01*
X136107671Y-62118797D01*
X136242514Y-62169090D01*
X136242517Y-62169091D01*
X136250509Y-62169950D01*
X136315059Y-62196683D01*
X136354910Y-62254073D01*
X136357408Y-62323898D01*
X136321759Y-62383989D01*
X136259281Y-62415268D01*
X136238828Y-62417229D01*
X130490001Y-62489999D01*
X130489999Y-62490000D01*
X129940000Y-63649998D01*
X129910425Y-66400415D01*
X129890021Y-66467239D01*
X129886715Y-66472015D01*
X129669999Y-66770000D01*
X129669999Y-66770001D01*
X129678409Y-67526897D01*
X129659471Y-67594151D01*
X129653618Y-67602673D01*
X129601094Y-67672706D01*
X129588007Y-67690986D01*
X129581810Y-67700062D01*
X129569604Y-67718816D01*
X129511985Y-67850661D01*
X129511985Y-67850662D01*
X129493404Y-67918007D01*
X129475263Y-68060750D01*
X129500099Y-69575734D01*
X129481516Y-69643087D01*
X129462428Y-69666796D01*
X129361468Y-69764673D01*
X129257950Y-69865030D01*
X129196117Y-69897560D01*
X129171640Y-69900000D01*
X128097342Y-69900000D01*
X128030303Y-69880315D01*
X128002862Y-69856308D01*
X127729014Y-69534134D01*
X127700594Y-69470306D01*
X127699502Y-69455204D01*
X127680446Y-67740142D01*
X127699384Y-67672888D01*
X127703165Y-67667212D01*
X127748764Y-67602673D01*
X128330000Y-66780000D01*
X128310178Y-62954517D01*
X128327681Y-62890358D01*
X128829856Y-62048477D01*
X128881105Y-62000987D01*
X128936350Y-61988000D01*
X135260118Y-61988000D01*
X135261945Y-61988489D01*
G37*
%TD.AperFunction*%
%TD*%
M02*
