M48
; DRILL file {KiCad 9.0.1} date 2025-04-26T12:53:02+0200
; FORMAT={-:-/ absolute / metric / decimal}
; #@! TF.CreationDate,2025-04-26T12:53:02+02:00
; #@! TF.GenerationSoftware,Kicad,Pcbnew,9.0.1
; #@! TF.FileFunction,Plated,1,2,PTH
FMAT,2
METRIC
; #@! TA.AperFunction,Plated,PTH,ViaDrill
T1C0.300
; #@! TA.AperFunction,Plated,PTH,ComponentDrill
T2C0.550
; #@! TA.AperFunction,Plated,PTH,ComponentDrill
T3C0.850
; #@! TA.AperFunction,Plated,PTH,ComponentDrill
T4C1.000
%
G90
G05
T1
X101.36Y-56.04
X105.74Y-63.79
X108.58Y-52.43
X109.48Y-58.22
X110.33Y-62.03
X111.53Y-66.94
X111.56Y-70.98
X112.49Y-57.55
X115.92Y-63.36
X116.1Y-75.01
X116.5Y-59.25
X117.54Y-69.01
X117.69Y-74.98
X119.48Y-72.02
X121.01Y-64.93
X121.66Y-72.01
X123.18Y-52.31
X125.83Y-59.97
X132.2Y-66.38
X132.24Y-65.02
X132.88Y-70.43
X133.76Y-70.43
X135.17Y-58.96
X138.41Y-71.05
X141.0Y-68.48
T4
X108.57Y-50.24
X111.11Y-50.24
X113.65Y-50.24
X114.92Y-78.0
X116.19Y-50.24
X117.46Y-78.0
X120.0Y-78.0
X122.54Y-78.0
X123.17Y-50.25
X125.71Y-50.25
X128.25Y-50.25
X130.79Y-50.25
T2
G00X140.525Y-56.925
M15
G01X141.175Y-56.925
M16
G05
G00X140.525Y-64.675
M15
G01X141.175Y-64.675
M16
G05
T3
G00X136.775Y-57.075
M15
G01X137.325Y-57.075
M16
G05
G00X136.775Y-64.525
M15
G01X137.325Y-64.525
M16
G05
M30
