%TF.GenerationSoftware,KiCad,Pcbnew,9.0.1*%
%TF.CreationDate,2025-04-26T12:53:08+02:00*%
%TF.ProjectId,stm32_board,73746d33-325f-4626-9f61-72642e6b6963,rev?*%
%TF.SameCoordinates,Original*%
%TF.FileFunction,Legend,Top*%
%TF.FilePolarity,Positive*%
%FSLAX46Y46*%
G04 Gerber Fmt 4.6, Leading zero omitted, Abs format (unit mm)*
G04 Created by KiCad (PCBNEW 9.0.1) date 2025-04-26 12:53:08*
%MOMM*%
%LPD*%
G01*
G04 APERTURE LIST*
%ADD10C,0.150000*%
%ADD11C,0.100000*%
%ADD12C,0.120000*%
G04 APERTURE END LIST*
D10*
X126373333Y-59399580D02*
X126325714Y-59447200D01*
X126325714Y-59447200D02*
X126182857Y-59494819D01*
X126182857Y-59494819D02*
X126087619Y-59494819D01*
X126087619Y-59494819D02*
X125944762Y-59447200D01*
X125944762Y-59447200D02*
X125849524Y-59351961D01*
X125849524Y-59351961D02*
X125801905Y-59256723D01*
X125801905Y-59256723D02*
X125754286Y-59066247D01*
X125754286Y-59066247D02*
X125754286Y-58923390D01*
X125754286Y-58923390D02*
X125801905Y-58732914D01*
X125801905Y-58732914D02*
X125849524Y-58637676D01*
X125849524Y-58637676D02*
X125944762Y-58542438D01*
X125944762Y-58542438D02*
X126087619Y-58494819D01*
X126087619Y-58494819D02*
X126182857Y-58494819D01*
X126182857Y-58494819D02*
X126325714Y-58542438D01*
X126325714Y-58542438D02*
X126373333Y-58590057D01*
X126754286Y-58590057D02*
X126801905Y-58542438D01*
X126801905Y-58542438D02*
X126897143Y-58494819D01*
X126897143Y-58494819D02*
X127135238Y-58494819D01*
X127135238Y-58494819D02*
X127230476Y-58542438D01*
X127230476Y-58542438D02*
X127278095Y-58590057D01*
X127278095Y-58590057D02*
X127325714Y-58685295D01*
X127325714Y-58685295D02*
X127325714Y-58780533D01*
X127325714Y-58780533D02*
X127278095Y-58923390D01*
X127278095Y-58923390D02*
X126706667Y-59494819D01*
X126706667Y-59494819D02*
X127325714Y-59494819D01*
X138438095Y-54379819D02*
X138438095Y-55189342D01*
X138438095Y-55189342D02*
X138485714Y-55284580D01*
X138485714Y-55284580D02*
X138533333Y-55332200D01*
X138533333Y-55332200D02*
X138628571Y-55379819D01*
X138628571Y-55379819D02*
X138819047Y-55379819D01*
X138819047Y-55379819D02*
X138914285Y-55332200D01*
X138914285Y-55332200D02*
X138961904Y-55284580D01*
X138961904Y-55284580D02*
X139009523Y-55189342D01*
X139009523Y-55189342D02*
X139009523Y-54379819D01*
X139438095Y-55332200D02*
X139580952Y-55379819D01*
X139580952Y-55379819D02*
X139819047Y-55379819D01*
X139819047Y-55379819D02*
X139914285Y-55332200D01*
X139914285Y-55332200D02*
X139961904Y-55284580D01*
X139961904Y-55284580D02*
X140009523Y-55189342D01*
X140009523Y-55189342D02*
X140009523Y-55094104D01*
X140009523Y-55094104D02*
X139961904Y-54998866D01*
X139961904Y-54998866D02*
X139914285Y-54951247D01*
X139914285Y-54951247D02*
X139819047Y-54903628D01*
X139819047Y-54903628D02*
X139628571Y-54856009D01*
X139628571Y-54856009D02*
X139533333Y-54808390D01*
X139533333Y-54808390D02*
X139485714Y-54760771D01*
X139485714Y-54760771D02*
X139438095Y-54665533D01*
X139438095Y-54665533D02*
X139438095Y-54570295D01*
X139438095Y-54570295D02*
X139485714Y-54475057D01*
X139485714Y-54475057D02*
X139533333Y-54427438D01*
X139533333Y-54427438D02*
X139628571Y-54379819D01*
X139628571Y-54379819D02*
X139866666Y-54379819D01*
X139866666Y-54379819D02*
X140009523Y-54427438D01*
X140771428Y-54856009D02*
X140914285Y-54903628D01*
X140914285Y-54903628D02*
X140961904Y-54951247D01*
X140961904Y-54951247D02*
X141009523Y-55046485D01*
X141009523Y-55046485D02*
X141009523Y-55189342D01*
X141009523Y-55189342D02*
X140961904Y-55284580D01*
X140961904Y-55284580D02*
X140914285Y-55332200D01*
X140914285Y-55332200D02*
X140819047Y-55379819D01*
X140819047Y-55379819D02*
X140438095Y-55379819D01*
X140438095Y-55379819D02*
X140438095Y-54379819D01*
X140438095Y-54379819D02*
X140771428Y-54379819D01*
X140771428Y-54379819D02*
X140866666Y-54427438D01*
X140866666Y-54427438D02*
X140914285Y-54475057D01*
X140914285Y-54475057D02*
X140961904Y-54570295D01*
X140961904Y-54570295D02*
X140961904Y-54665533D01*
X140961904Y-54665533D02*
X140914285Y-54760771D01*
X140914285Y-54760771D02*
X140866666Y-54808390D01*
X140866666Y-54808390D02*
X140771428Y-54856009D01*
X140771428Y-54856009D02*
X140438095Y-54856009D01*
X112483333Y-65534580D02*
X112435714Y-65582200D01*
X112435714Y-65582200D02*
X112292857Y-65629819D01*
X112292857Y-65629819D02*
X112197619Y-65629819D01*
X112197619Y-65629819D02*
X112054762Y-65582200D01*
X112054762Y-65582200D02*
X111959524Y-65486961D01*
X111959524Y-65486961D02*
X111911905Y-65391723D01*
X111911905Y-65391723D02*
X111864286Y-65201247D01*
X111864286Y-65201247D02*
X111864286Y-65058390D01*
X111864286Y-65058390D02*
X111911905Y-64867914D01*
X111911905Y-64867914D02*
X111959524Y-64772676D01*
X111959524Y-64772676D02*
X112054762Y-64677438D01*
X112054762Y-64677438D02*
X112197619Y-64629819D01*
X112197619Y-64629819D02*
X112292857Y-64629819D01*
X112292857Y-64629819D02*
X112435714Y-64677438D01*
X112435714Y-64677438D02*
X112483333Y-64725057D01*
X113388095Y-64629819D02*
X112911905Y-64629819D01*
X112911905Y-64629819D02*
X112864286Y-65106009D01*
X112864286Y-65106009D02*
X112911905Y-65058390D01*
X112911905Y-65058390D02*
X113007143Y-65010771D01*
X113007143Y-65010771D02*
X113245238Y-65010771D01*
X113245238Y-65010771D02*
X113340476Y-65058390D01*
X113340476Y-65058390D02*
X113388095Y-65106009D01*
X113388095Y-65106009D02*
X113435714Y-65201247D01*
X113435714Y-65201247D02*
X113435714Y-65439342D01*
X113435714Y-65439342D02*
X113388095Y-65534580D01*
X113388095Y-65534580D02*
X113340476Y-65582200D01*
X113340476Y-65582200D02*
X113245238Y-65629819D01*
X113245238Y-65629819D02*
X113007143Y-65629819D01*
X113007143Y-65629819D02*
X112911905Y-65582200D01*
X112911905Y-65582200D02*
X112864286Y-65534580D01*
X114016666Y-71251009D02*
X113683333Y-71251009D01*
X113683333Y-71774819D02*
X113683333Y-70774819D01*
X113683333Y-70774819D02*
X114159523Y-70774819D01*
X114873809Y-71251009D02*
X115016666Y-71298628D01*
X115016666Y-71298628D02*
X115064285Y-71346247D01*
X115064285Y-71346247D02*
X115111904Y-71441485D01*
X115111904Y-71441485D02*
X115111904Y-71584342D01*
X115111904Y-71584342D02*
X115064285Y-71679580D01*
X115064285Y-71679580D02*
X115016666Y-71727200D01*
X115016666Y-71727200D02*
X114921428Y-71774819D01*
X114921428Y-71774819D02*
X114540476Y-71774819D01*
X114540476Y-71774819D02*
X114540476Y-70774819D01*
X114540476Y-70774819D02*
X114873809Y-70774819D01*
X114873809Y-70774819D02*
X114969047Y-70822438D01*
X114969047Y-70822438D02*
X115016666Y-70870057D01*
X115016666Y-70870057D02*
X115064285Y-70965295D01*
X115064285Y-70965295D02*
X115064285Y-71060533D01*
X115064285Y-71060533D02*
X115016666Y-71155771D01*
X115016666Y-71155771D02*
X114969047Y-71203390D01*
X114969047Y-71203390D02*
X114873809Y-71251009D01*
X114873809Y-71251009D02*
X114540476Y-71251009D01*
X116064285Y-71774819D02*
X115492857Y-71774819D01*
X115778571Y-71774819D02*
X115778571Y-70774819D01*
X115778571Y-70774819D02*
X115683333Y-70917676D01*
X115683333Y-70917676D02*
X115588095Y-71012914D01*
X115588095Y-71012914D02*
X115492857Y-71060533D01*
X129813333Y-59214819D02*
X129480000Y-58738628D01*
X129241905Y-59214819D02*
X129241905Y-58214819D01*
X129241905Y-58214819D02*
X129622857Y-58214819D01*
X129622857Y-58214819D02*
X129718095Y-58262438D01*
X129718095Y-58262438D02*
X129765714Y-58310057D01*
X129765714Y-58310057D02*
X129813333Y-58405295D01*
X129813333Y-58405295D02*
X129813333Y-58548152D01*
X129813333Y-58548152D02*
X129765714Y-58643390D01*
X129765714Y-58643390D02*
X129718095Y-58691009D01*
X129718095Y-58691009D02*
X129622857Y-58738628D01*
X129622857Y-58738628D02*
X129241905Y-58738628D01*
X130194286Y-58310057D02*
X130241905Y-58262438D01*
X130241905Y-58262438D02*
X130337143Y-58214819D01*
X130337143Y-58214819D02*
X130575238Y-58214819D01*
X130575238Y-58214819D02*
X130670476Y-58262438D01*
X130670476Y-58262438D02*
X130718095Y-58310057D01*
X130718095Y-58310057D02*
X130765714Y-58405295D01*
X130765714Y-58405295D02*
X130765714Y-58500533D01*
X130765714Y-58500533D02*
X130718095Y-58643390D01*
X130718095Y-58643390D02*
X130146667Y-59214819D01*
X130146667Y-59214819D02*
X130765714Y-59214819D01*
X121493333Y-70029580D02*
X121445714Y-70077200D01*
X121445714Y-70077200D02*
X121302857Y-70124819D01*
X121302857Y-70124819D02*
X121207619Y-70124819D01*
X121207619Y-70124819D02*
X121064762Y-70077200D01*
X121064762Y-70077200D02*
X120969524Y-69981961D01*
X120969524Y-69981961D02*
X120921905Y-69886723D01*
X120921905Y-69886723D02*
X120874286Y-69696247D01*
X120874286Y-69696247D02*
X120874286Y-69553390D01*
X120874286Y-69553390D02*
X120921905Y-69362914D01*
X120921905Y-69362914D02*
X120969524Y-69267676D01*
X120969524Y-69267676D02*
X121064762Y-69172438D01*
X121064762Y-69172438D02*
X121207619Y-69124819D01*
X121207619Y-69124819D02*
X121302857Y-69124819D01*
X121302857Y-69124819D02*
X121445714Y-69172438D01*
X121445714Y-69172438D02*
X121493333Y-69220057D01*
X121826667Y-69124819D02*
X122445714Y-69124819D01*
X122445714Y-69124819D02*
X122112381Y-69505771D01*
X122112381Y-69505771D02*
X122255238Y-69505771D01*
X122255238Y-69505771D02*
X122350476Y-69553390D01*
X122350476Y-69553390D02*
X122398095Y-69601009D01*
X122398095Y-69601009D02*
X122445714Y-69696247D01*
X122445714Y-69696247D02*
X122445714Y-69934342D01*
X122445714Y-69934342D02*
X122398095Y-70029580D01*
X122398095Y-70029580D02*
X122350476Y-70077200D01*
X122350476Y-70077200D02*
X122255238Y-70124819D01*
X122255238Y-70124819D02*
X121969524Y-70124819D01*
X121969524Y-70124819D02*
X121874286Y-70077200D01*
X121874286Y-70077200D02*
X121826667Y-70029580D01*
X117988095Y-55767319D02*
X117988095Y-56576842D01*
X117988095Y-56576842D02*
X118035714Y-56672080D01*
X118035714Y-56672080D02*
X118083333Y-56719700D01*
X118083333Y-56719700D02*
X118178571Y-56767319D01*
X118178571Y-56767319D02*
X118369047Y-56767319D01*
X118369047Y-56767319D02*
X118464285Y-56719700D01*
X118464285Y-56719700D02*
X118511904Y-56672080D01*
X118511904Y-56672080D02*
X118559523Y-56576842D01*
X118559523Y-56576842D02*
X118559523Y-55767319D01*
X119559523Y-56767319D02*
X118988095Y-56767319D01*
X119273809Y-56767319D02*
X119273809Y-55767319D01*
X119273809Y-55767319D02*
X119178571Y-55910176D01*
X119178571Y-55910176D02*
X119083333Y-56005414D01*
X119083333Y-56005414D02*
X118988095Y-56053033D01*
X121833333Y-73954819D02*
X121500000Y-73478628D01*
X121261905Y-73954819D02*
X121261905Y-72954819D01*
X121261905Y-72954819D02*
X121642857Y-72954819D01*
X121642857Y-72954819D02*
X121738095Y-73002438D01*
X121738095Y-73002438D02*
X121785714Y-73050057D01*
X121785714Y-73050057D02*
X121833333Y-73145295D01*
X121833333Y-73145295D02*
X121833333Y-73288152D01*
X121833333Y-73288152D02*
X121785714Y-73383390D01*
X121785714Y-73383390D02*
X121738095Y-73431009D01*
X121738095Y-73431009D02*
X121642857Y-73478628D01*
X121642857Y-73478628D02*
X121261905Y-73478628D01*
X122738095Y-72954819D02*
X122261905Y-72954819D01*
X122261905Y-72954819D02*
X122214286Y-73431009D01*
X122214286Y-73431009D02*
X122261905Y-73383390D01*
X122261905Y-73383390D02*
X122357143Y-73335771D01*
X122357143Y-73335771D02*
X122595238Y-73335771D01*
X122595238Y-73335771D02*
X122690476Y-73383390D01*
X122690476Y-73383390D02*
X122738095Y-73431009D01*
X122738095Y-73431009D02*
X122785714Y-73526247D01*
X122785714Y-73526247D02*
X122785714Y-73764342D01*
X122785714Y-73764342D02*
X122738095Y-73859580D01*
X122738095Y-73859580D02*
X122690476Y-73907200D01*
X122690476Y-73907200D02*
X122595238Y-73954819D01*
X122595238Y-73954819D02*
X122357143Y-73954819D01*
X122357143Y-73954819D02*
X122261905Y-73907200D01*
X122261905Y-73907200D02*
X122214286Y-73859580D01*
X110833333Y-56954819D02*
X110500000Y-56478628D01*
X110261905Y-56954819D02*
X110261905Y-55954819D01*
X110261905Y-55954819D02*
X110642857Y-55954819D01*
X110642857Y-55954819D02*
X110738095Y-56002438D01*
X110738095Y-56002438D02*
X110785714Y-56050057D01*
X110785714Y-56050057D02*
X110833333Y-56145295D01*
X110833333Y-56145295D02*
X110833333Y-56288152D01*
X110833333Y-56288152D02*
X110785714Y-56383390D01*
X110785714Y-56383390D02*
X110738095Y-56431009D01*
X110738095Y-56431009D02*
X110642857Y-56478628D01*
X110642857Y-56478628D02*
X110261905Y-56478628D01*
X111785714Y-56954819D02*
X111214286Y-56954819D01*
X111500000Y-56954819D02*
X111500000Y-55954819D01*
X111500000Y-55954819D02*
X111404762Y-56097676D01*
X111404762Y-56097676D02*
X111309524Y-56192914D01*
X111309524Y-56192914D02*
X111214286Y-56240533D01*
X139284819Y-69156666D02*
X138808628Y-69489999D01*
X139284819Y-69728094D02*
X138284819Y-69728094D01*
X138284819Y-69728094D02*
X138284819Y-69347142D01*
X138284819Y-69347142D02*
X138332438Y-69251904D01*
X138332438Y-69251904D02*
X138380057Y-69204285D01*
X138380057Y-69204285D02*
X138475295Y-69156666D01*
X138475295Y-69156666D02*
X138618152Y-69156666D01*
X138618152Y-69156666D02*
X138713390Y-69204285D01*
X138713390Y-69204285D02*
X138761009Y-69251904D01*
X138761009Y-69251904D02*
X138808628Y-69347142D01*
X138808628Y-69347142D02*
X138808628Y-69728094D01*
X138284819Y-68823332D02*
X138284819Y-68204285D01*
X138284819Y-68204285D02*
X138665771Y-68537618D01*
X138665771Y-68537618D02*
X138665771Y-68394761D01*
X138665771Y-68394761D02*
X138713390Y-68299523D01*
X138713390Y-68299523D02*
X138761009Y-68251904D01*
X138761009Y-68251904D02*
X138856247Y-68204285D01*
X138856247Y-68204285D02*
X139094342Y-68204285D01*
X139094342Y-68204285D02*
X139189580Y-68251904D01*
X139189580Y-68251904D02*
X139237200Y-68299523D01*
X139237200Y-68299523D02*
X139284819Y-68394761D01*
X139284819Y-68394761D02*
X139284819Y-68680475D01*
X139284819Y-68680475D02*
X139237200Y-68775713D01*
X139237200Y-68775713D02*
X139189580Y-68823332D01*
X110344762Y-52474819D02*
X110344762Y-53284342D01*
X110344762Y-53284342D02*
X110392381Y-53379580D01*
X110392381Y-53379580D02*
X110440000Y-53427200D01*
X110440000Y-53427200D02*
X110535238Y-53474819D01*
X110535238Y-53474819D02*
X110725714Y-53474819D01*
X110725714Y-53474819D02*
X110820952Y-53427200D01*
X110820952Y-53427200D02*
X110868571Y-53379580D01*
X110868571Y-53379580D02*
X110916190Y-53284342D01*
X110916190Y-53284342D02*
X110916190Y-52474819D01*
X111344762Y-53189104D02*
X111820952Y-53189104D01*
X111249524Y-53474819D02*
X111582857Y-52474819D01*
X111582857Y-52474819D02*
X111916190Y-53474819D01*
X112820952Y-53474819D02*
X112487619Y-52998628D01*
X112249524Y-53474819D02*
X112249524Y-52474819D01*
X112249524Y-52474819D02*
X112630476Y-52474819D01*
X112630476Y-52474819D02*
X112725714Y-52522438D01*
X112725714Y-52522438D02*
X112773333Y-52570057D01*
X112773333Y-52570057D02*
X112820952Y-52665295D01*
X112820952Y-52665295D02*
X112820952Y-52808152D01*
X112820952Y-52808152D02*
X112773333Y-52903390D01*
X112773333Y-52903390D02*
X112725714Y-52951009D01*
X112725714Y-52951009D02*
X112630476Y-52998628D01*
X112630476Y-52998628D02*
X112249524Y-52998628D01*
X113106667Y-52474819D02*
X113678095Y-52474819D01*
X113392381Y-53474819D02*
X113392381Y-52474819D01*
X113293333Y-54959580D02*
X113245714Y-55007200D01*
X113245714Y-55007200D02*
X113102857Y-55054819D01*
X113102857Y-55054819D02*
X113007619Y-55054819D01*
X113007619Y-55054819D02*
X112864762Y-55007200D01*
X112864762Y-55007200D02*
X112769524Y-54911961D01*
X112769524Y-54911961D02*
X112721905Y-54816723D01*
X112721905Y-54816723D02*
X112674286Y-54626247D01*
X112674286Y-54626247D02*
X112674286Y-54483390D01*
X112674286Y-54483390D02*
X112721905Y-54292914D01*
X112721905Y-54292914D02*
X112769524Y-54197676D01*
X112769524Y-54197676D02*
X112864762Y-54102438D01*
X112864762Y-54102438D02*
X113007619Y-54054819D01*
X113007619Y-54054819D02*
X113102857Y-54054819D01*
X113102857Y-54054819D02*
X113245714Y-54102438D01*
X113245714Y-54102438D02*
X113293333Y-54150057D01*
X114150476Y-54388152D02*
X114150476Y-55054819D01*
X113912381Y-54007200D02*
X113674286Y-54721485D01*
X113674286Y-54721485D02*
X114293333Y-54721485D01*
X109833333Y-70359580D02*
X109785714Y-70407200D01*
X109785714Y-70407200D02*
X109642857Y-70454819D01*
X109642857Y-70454819D02*
X109547619Y-70454819D01*
X109547619Y-70454819D02*
X109404762Y-70407200D01*
X109404762Y-70407200D02*
X109309524Y-70311961D01*
X109309524Y-70311961D02*
X109261905Y-70216723D01*
X109261905Y-70216723D02*
X109214286Y-70026247D01*
X109214286Y-70026247D02*
X109214286Y-69883390D01*
X109214286Y-69883390D02*
X109261905Y-69692914D01*
X109261905Y-69692914D02*
X109309524Y-69597676D01*
X109309524Y-69597676D02*
X109404762Y-69502438D01*
X109404762Y-69502438D02*
X109547619Y-69454819D01*
X109547619Y-69454819D02*
X109642857Y-69454819D01*
X109642857Y-69454819D02*
X109785714Y-69502438D01*
X109785714Y-69502438D02*
X109833333Y-69550057D01*
X110166667Y-69454819D02*
X110833333Y-69454819D01*
X110833333Y-69454819D02*
X110404762Y-70454819D01*
X109833333Y-68359580D02*
X109785714Y-68407200D01*
X109785714Y-68407200D02*
X109642857Y-68454819D01*
X109642857Y-68454819D02*
X109547619Y-68454819D01*
X109547619Y-68454819D02*
X109404762Y-68407200D01*
X109404762Y-68407200D02*
X109309524Y-68311961D01*
X109309524Y-68311961D02*
X109261905Y-68216723D01*
X109261905Y-68216723D02*
X109214286Y-68026247D01*
X109214286Y-68026247D02*
X109214286Y-67883390D01*
X109214286Y-67883390D02*
X109261905Y-67692914D01*
X109261905Y-67692914D02*
X109309524Y-67597676D01*
X109309524Y-67597676D02*
X109404762Y-67502438D01*
X109404762Y-67502438D02*
X109547619Y-67454819D01*
X109547619Y-67454819D02*
X109642857Y-67454819D01*
X109642857Y-67454819D02*
X109785714Y-67502438D01*
X109785714Y-67502438D02*
X109833333Y-67550057D01*
X110690476Y-67454819D02*
X110500000Y-67454819D01*
X110500000Y-67454819D02*
X110404762Y-67502438D01*
X110404762Y-67502438D02*
X110357143Y-67550057D01*
X110357143Y-67550057D02*
X110261905Y-67692914D01*
X110261905Y-67692914D02*
X110214286Y-67883390D01*
X110214286Y-67883390D02*
X110214286Y-68264342D01*
X110214286Y-68264342D02*
X110261905Y-68359580D01*
X110261905Y-68359580D02*
X110309524Y-68407200D01*
X110309524Y-68407200D02*
X110404762Y-68454819D01*
X110404762Y-68454819D02*
X110595238Y-68454819D01*
X110595238Y-68454819D02*
X110690476Y-68407200D01*
X110690476Y-68407200D02*
X110738095Y-68359580D01*
X110738095Y-68359580D02*
X110785714Y-68264342D01*
X110785714Y-68264342D02*
X110785714Y-68026247D01*
X110785714Y-68026247D02*
X110738095Y-67931009D01*
X110738095Y-67931009D02*
X110690476Y-67883390D01*
X110690476Y-67883390D02*
X110595238Y-67835771D01*
X110595238Y-67835771D02*
X110404762Y-67835771D01*
X110404762Y-67835771D02*
X110309524Y-67883390D01*
X110309524Y-67883390D02*
X110261905Y-67931009D01*
X110261905Y-67931009D02*
X110214286Y-68026247D01*
X126357142Y-66059580D02*
X126309523Y-66107200D01*
X126309523Y-66107200D02*
X126166666Y-66154819D01*
X126166666Y-66154819D02*
X126071428Y-66154819D01*
X126071428Y-66154819D02*
X125928571Y-66107200D01*
X125928571Y-66107200D02*
X125833333Y-66011961D01*
X125833333Y-66011961D02*
X125785714Y-65916723D01*
X125785714Y-65916723D02*
X125738095Y-65726247D01*
X125738095Y-65726247D02*
X125738095Y-65583390D01*
X125738095Y-65583390D02*
X125785714Y-65392914D01*
X125785714Y-65392914D02*
X125833333Y-65297676D01*
X125833333Y-65297676D02*
X125928571Y-65202438D01*
X125928571Y-65202438D02*
X126071428Y-65154819D01*
X126071428Y-65154819D02*
X126166666Y-65154819D01*
X126166666Y-65154819D02*
X126309523Y-65202438D01*
X126309523Y-65202438D02*
X126357142Y-65250057D01*
X127309523Y-66154819D02*
X126738095Y-66154819D01*
X127023809Y-66154819D02*
X127023809Y-65154819D01*
X127023809Y-65154819D02*
X126928571Y-65297676D01*
X126928571Y-65297676D02*
X126833333Y-65392914D01*
X126833333Y-65392914D02*
X126738095Y-65440533D01*
X128261904Y-66154819D02*
X127690476Y-66154819D01*
X127976190Y-66154819D02*
X127976190Y-65154819D01*
X127976190Y-65154819D02*
X127880952Y-65297676D01*
X127880952Y-65297676D02*
X127785714Y-65392914D01*
X127785714Y-65392914D02*
X127690476Y-65440533D01*
X113833333Y-57359580D02*
X113785714Y-57407200D01*
X113785714Y-57407200D02*
X113642857Y-57454819D01*
X113642857Y-57454819D02*
X113547619Y-57454819D01*
X113547619Y-57454819D02*
X113404762Y-57407200D01*
X113404762Y-57407200D02*
X113309524Y-57311961D01*
X113309524Y-57311961D02*
X113261905Y-57216723D01*
X113261905Y-57216723D02*
X113214286Y-57026247D01*
X113214286Y-57026247D02*
X113214286Y-56883390D01*
X113214286Y-56883390D02*
X113261905Y-56692914D01*
X113261905Y-56692914D02*
X113309524Y-56597676D01*
X113309524Y-56597676D02*
X113404762Y-56502438D01*
X113404762Y-56502438D02*
X113547619Y-56454819D01*
X113547619Y-56454819D02*
X113642857Y-56454819D01*
X113642857Y-56454819D02*
X113785714Y-56502438D01*
X113785714Y-56502438D02*
X113833333Y-56550057D01*
X114785714Y-57454819D02*
X114214286Y-57454819D01*
X114500000Y-57454819D02*
X114500000Y-56454819D01*
X114500000Y-56454819D02*
X114404762Y-56597676D01*
X114404762Y-56597676D02*
X114309524Y-56692914D01*
X114309524Y-56692914D02*
X114214286Y-56740533D01*
D11*
X113458571Y-58288490D02*
X113434762Y-58312300D01*
X113434762Y-58312300D02*
X113363333Y-58336109D01*
X113363333Y-58336109D02*
X113315714Y-58336109D01*
X113315714Y-58336109D02*
X113244286Y-58312300D01*
X113244286Y-58312300D02*
X113196667Y-58264680D01*
X113196667Y-58264680D02*
X113172857Y-58217061D01*
X113172857Y-58217061D02*
X113149048Y-58121823D01*
X113149048Y-58121823D02*
X113149048Y-58050395D01*
X113149048Y-58050395D02*
X113172857Y-57955157D01*
X113172857Y-57955157D02*
X113196667Y-57907538D01*
X113196667Y-57907538D02*
X113244286Y-57859919D01*
X113244286Y-57859919D02*
X113315714Y-57836109D01*
X113315714Y-57836109D02*
X113363333Y-57836109D01*
X113363333Y-57836109D02*
X113434762Y-57859919D01*
X113434762Y-57859919D02*
X113458571Y-57883728D01*
X113934762Y-58336109D02*
X113649048Y-58336109D01*
X113791905Y-58336109D02*
X113791905Y-57836109D01*
X113791905Y-57836109D02*
X113744286Y-57907538D01*
X113744286Y-57907538D02*
X113696667Y-57955157D01*
X113696667Y-57955157D02*
X113649048Y-57978966D01*
X114101428Y-57836109D02*
X114410952Y-57836109D01*
X114410952Y-57836109D02*
X114244285Y-58026585D01*
X114244285Y-58026585D02*
X114315714Y-58026585D01*
X114315714Y-58026585D02*
X114363333Y-58050395D01*
X114363333Y-58050395D02*
X114387142Y-58074204D01*
X114387142Y-58074204D02*
X114410952Y-58121823D01*
X114410952Y-58121823D02*
X114410952Y-58240871D01*
X114410952Y-58240871D02*
X114387142Y-58288490D01*
X114387142Y-58288490D02*
X114363333Y-58312300D01*
X114363333Y-58312300D02*
X114315714Y-58336109D01*
X114315714Y-58336109D02*
X114172857Y-58336109D01*
X114172857Y-58336109D02*
X114125238Y-58312300D01*
X114125238Y-58312300D02*
X114101428Y-58288490D01*
D10*
X139261905Y-74954819D02*
X139261905Y-73954819D01*
X139261905Y-73954819D02*
X139500000Y-73954819D01*
X139500000Y-73954819D02*
X139642857Y-74002438D01*
X139642857Y-74002438D02*
X139738095Y-74097676D01*
X139738095Y-74097676D02*
X139785714Y-74192914D01*
X139785714Y-74192914D02*
X139833333Y-74383390D01*
X139833333Y-74383390D02*
X139833333Y-74526247D01*
X139833333Y-74526247D02*
X139785714Y-74716723D01*
X139785714Y-74716723D02*
X139738095Y-74811961D01*
X139738095Y-74811961D02*
X139642857Y-74907200D01*
X139642857Y-74907200D02*
X139500000Y-74954819D01*
X139500000Y-74954819D02*
X139261905Y-74954819D01*
X140785714Y-74954819D02*
X140214286Y-74954819D01*
X140500000Y-74954819D02*
X140500000Y-73954819D01*
X140500000Y-73954819D02*
X140404762Y-74097676D01*
X140404762Y-74097676D02*
X140309524Y-74192914D01*
X140309524Y-74192914D02*
X140214286Y-74240533D01*
X130238095Y-76454819D02*
X130238095Y-77264342D01*
X130238095Y-77264342D02*
X130285714Y-77359580D01*
X130285714Y-77359580D02*
X130333333Y-77407200D01*
X130333333Y-77407200D02*
X130428571Y-77454819D01*
X130428571Y-77454819D02*
X130619047Y-77454819D01*
X130619047Y-77454819D02*
X130714285Y-77407200D01*
X130714285Y-77407200D02*
X130761904Y-77359580D01*
X130761904Y-77359580D02*
X130809523Y-77264342D01*
X130809523Y-77264342D02*
X130809523Y-76454819D01*
X131238095Y-76550057D02*
X131285714Y-76502438D01*
X131285714Y-76502438D02*
X131380952Y-76454819D01*
X131380952Y-76454819D02*
X131619047Y-76454819D01*
X131619047Y-76454819D02*
X131714285Y-76502438D01*
X131714285Y-76502438D02*
X131761904Y-76550057D01*
X131761904Y-76550057D02*
X131809523Y-76645295D01*
X131809523Y-76645295D02*
X131809523Y-76740533D01*
X131809523Y-76740533D02*
X131761904Y-76883390D01*
X131761904Y-76883390D02*
X131190476Y-77454819D01*
X131190476Y-77454819D02*
X131809523Y-77454819D01*
X110483810Y-78504819D02*
X110483810Y-77504819D01*
X110912381Y-77600057D02*
X110960000Y-77552438D01*
X110960000Y-77552438D02*
X111055238Y-77504819D01*
X111055238Y-77504819D02*
X111293333Y-77504819D01*
X111293333Y-77504819D02*
X111388571Y-77552438D01*
X111388571Y-77552438D02*
X111436190Y-77600057D01*
X111436190Y-77600057D02*
X111483809Y-77695295D01*
X111483809Y-77695295D02*
X111483809Y-77790533D01*
X111483809Y-77790533D02*
X111436190Y-77933390D01*
X111436190Y-77933390D02*
X110864762Y-78504819D01*
X110864762Y-78504819D02*
X111483809Y-78504819D01*
X112483809Y-78409580D02*
X112436190Y-78457200D01*
X112436190Y-78457200D02*
X112293333Y-78504819D01*
X112293333Y-78504819D02*
X112198095Y-78504819D01*
X112198095Y-78504819D02*
X112055238Y-78457200D01*
X112055238Y-78457200D02*
X111960000Y-78361961D01*
X111960000Y-78361961D02*
X111912381Y-78266723D01*
X111912381Y-78266723D02*
X111864762Y-78076247D01*
X111864762Y-78076247D02*
X111864762Y-77933390D01*
X111864762Y-77933390D02*
X111912381Y-77742914D01*
X111912381Y-77742914D02*
X111960000Y-77647676D01*
X111960000Y-77647676D02*
X112055238Y-77552438D01*
X112055238Y-77552438D02*
X112198095Y-77504819D01*
X112198095Y-77504819D02*
X112293333Y-77504819D01*
X112293333Y-77504819D02*
X112436190Y-77552438D01*
X112436190Y-77552438D02*
X112483809Y-77600057D01*
X98402857Y-64331009D02*
X98545714Y-64378628D01*
X98545714Y-64378628D02*
X98593333Y-64426247D01*
X98593333Y-64426247D02*
X98640952Y-64521485D01*
X98640952Y-64521485D02*
X98640952Y-64664342D01*
X98640952Y-64664342D02*
X98593333Y-64759580D01*
X98593333Y-64759580D02*
X98545714Y-64807200D01*
X98545714Y-64807200D02*
X98450476Y-64854819D01*
X98450476Y-64854819D02*
X98069524Y-64854819D01*
X98069524Y-64854819D02*
X98069524Y-63854819D01*
X98069524Y-63854819D02*
X98402857Y-63854819D01*
X98402857Y-63854819D02*
X98498095Y-63902438D01*
X98498095Y-63902438D02*
X98545714Y-63950057D01*
X98545714Y-63950057D02*
X98593333Y-64045295D01*
X98593333Y-64045295D02*
X98593333Y-64140533D01*
X98593333Y-64140533D02*
X98545714Y-64235771D01*
X98545714Y-64235771D02*
X98498095Y-64283390D01*
X98498095Y-64283390D02*
X98402857Y-64331009D01*
X98402857Y-64331009D02*
X98069524Y-64331009D01*
X99260000Y-63854819D02*
X99450476Y-63854819D01*
X99450476Y-63854819D02*
X99545714Y-63902438D01*
X99545714Y-63902438D02*
X99640952Y-63997676D01*
X99640952Y-63997676D02*
X99688571Y-64188152D01*
X99688571Y-64188152D02*
X99688571Y-64521485D01*
X99688571Y-64521485D02*
X99640952Y-64711961D01*
X99640952Y-64711961D02*
X99545714Y-64807200D01*
X99545714Y-64807200D02*
X99450476Y-64854819D01*
X99450476Y-64854819D02*
X99260000Y-64854819D01*
X99260000Y-64854819D02*
X99164762Y-64807200D01*
X99164762Y-64807200D02*
X99069524Y-64711961D01*
X99069524Y-64711961D02*
X99021905Y-64521485D01*
X99021905Y-64521485D02*
X99021905Y-64188152D01*
X99021905Y-64188152D02*
X99069524Y-63997676D01*
X99069524Y-63997676D02*
X99164762Y-63902438D01*
X99164762Y-63902438D02*
X99260000Y-63854819D01*
X100307619Y-63854819D02*
X100498095Y-63854819D01*
X100498095Y-63854819D02*
X100593333Y-63902438D01*
X100593333Y-63902438D02*
X100688571Y-63997676D01*
X100688571Y-63997676D02*
X100736190Y-64188152D01*
X100736190Y-64188152D02*
X100736190Y-64521485D01*
X100736190Y-64521485D02*
X100688571Y-64711961D01*
X100688571Y-64711961D02*
X100593333Y-64807200D01*
X100593333Y-64807200D02*
X100498095Y-64854819D01*
X100498095Y-64854819D02*
X100307619Y-64854819D01*
X100307619Y-64854819D02*
X100212381Y-64807200D01*
X100212381Y-64807200D02*
X100117143Y-64711961D01*
X100117143Y-64711961D02*
X100069524Y-64521485D01*
X100069524Y-64521485D02*
X100069524Y-64188152D01*
X100069524Y-64188152D02*
X100117143Y-63997676D01*
X100117143Y-63997676D02*
X100212381Y-63902438D01*
X100212381Y-63902438D02*
X100307619Y-63854819D01*
X101021905Y-63854819D02*
X101593333Y-63854819D01*
X101307619Y-64854819D02*
X101307619Y-63854819D01*
X103673809Y-61808628D02*
X103673809Y-62284819D01*
X103340476Y-61284819D02*
X103673809Y-61808628D01*
X103673809Y-61808628D02*
X104007142Y-61284819D01*
X104864285Y-62284819D02*
X104292857Y-62284819D01*
X104578571Y-62284819D02*
X104578571Y-61284819D01*
X104578571Y-61284819D02*
X104483333Y-61427676D01*
X104483333Y-61427676D02*
X104388095Y-61522914D01*
X104388095Y-61522914D02*
X104292857Y-61570533D01*
X115333333Y-73954819D02*
X115000000Y-73478628D01*
X114761905Y-73954819D02*
X114761905Y-72954819D01*
X114761905Y-72954819D02*
X115142857Y-72954819D01*
X115142857Y-72954819D02*
X115238095Y-73002438D01*
X115238095Y-73002438D02*
X115285714Y-73050057D01*
X115285714Y-73050057D02*
X115333333Y-73145295D01*
X115333333Y-73145295D02*
X115333333Y-73288152D01*
X115333333Y-73288152D02*
X115285714Y-73383390D01*
X115285714Y-73383390D02*
X115238095Y-73431009D01*
X115238095Y-73431009D02*
X115142857Y-73478628D01*
X115142857Y-73478628D02*
X114761905Y-73478628D01*
X116190476Y-73288152D02*
X116190476Y-73954819D01*
X115952381Y-72907200D02*
X115714286Y-73621485D01*
X115714286Y-73621485D02*
X116333333Y-73621485D01*
X125682857Y-53027200D02*
X125825714Y-53074819D01*
X125825714Y-53074819D02*
X126063809Y-53074819D01*
X126063809Y-53074819D02*
X126159047Y-53027200D01*
X126159047Y-53027200D02*
X126206666Y-52979580D01*
X126206666Y-52979580D02*
X126254285Y-52884342D01*
X126254285Y-52884342D02*
X126254285Y-52789104D01*
X126254285Y-52789104D02*
X126206666Y-52693866D01*
X126206666Y-52693866D02*
X126159047Y-52646247D01*
X126159047Y-52646247D02*
X126063809Y-52598628D01*
X126063809Y-52598628D02*
X125873333Y-52551009D01*
X125873333Y-52551009D02*
X125778095Y-52503390D01*
X125778095Y-52503390D02*
X125730476Y-52455771D01*
X125730476Y-52455771D02*
X125682857Y-52360533D01*
X125682857Y-52360533D02*
X125682857Y-52265295D01*
X125682857Y-52265295D02*
X125730476Y-52170057D01*
X125730476Y-52170057D02*
X125778095Y-52122438D01*
X125778095Y-52122438D02*
X125873333Y-52074819D01*
X125873333Y-52074819D02*
X126111428Y-52074819D01*
X126111428Y-52074819D02*
X126254285Y-52122438D01*
X126587619Y-52074819D02*
X126825714Y-53074819D01*
X126825714Y-53074819D02*
X127016190Y-52360533D01*
X127016190Y-52360533D02*
X127206666Y-53074819D01*
X127206666Y-53074819D02*
X127444762Y-52074819D01*
X127825714Y-53074819D02*
X127825714Y-52074819D01*
X127825714Y-52074819D02*
X128063809Y-52074819D01*
X128063809Y-52074819D02*
X128206666Y-52122438D01*
X128206666Y-52122438D02*
X128301904Y-52217676D01*
X128301904Y-52217676D02*
X128349523Y-52312914D01*
X128349523Y-52312914D02*
X128397142Y-52503390D01*
X128397142Y-52503390D02*
X128397142Y-52646247D01*
X128397142Y-52646247D02*
X128349523Y-52836723D01*
X128349523Y-52836723D02*
X128301904Y-52931961D01*
X128301904Y-52931961D02*
X128206666Y-53027200D01*
X128206666Y-53027200D02*
X128063809Y-53074819D01*
X128063809Y-53074819D02*
X127825714Y-53074819D01*
X136859580Y-69142857D02*
X136907200Y-69190476D01*
X136907200Y-69190476D02*
X136954819Y-69333333D01*
X136954819Y-69333333D02*
X136954819Y-69428571D01*
X136954819Y-69428571D02*
X136907200Y-69571428D01*
X136907200Y-69571428D02*
X136811961Y-69666666D01*
X136811961Y-69666666D02*
X136716723Y-69714285D01*
X136716723Y-69714285D02*
X136526247Y-69761904D01*
X136526247Y-69761904D02*
X136383390Y-69761904D01*
X136383390Y-69761904D02*
X136192914Y-69714285D01*
X136192914Y-69714285D02*
X136097676Y-69666666D01*
X136097676Y-69666666D02*
X136002438Y-69571428D01*
X136002438Y-69571428D02*
X135954819Y-69428571D01*
X135954819Y-69428571D02*
X135954819Y-69333333D01*
X135954819Y-69333333D02*
X136002438Y-69190476D01*
X136002438Y-69190476D02*
X136050057Y-69142857D01*
X136954819Y-68190476D02*
X136954819Y-68761904D01*
X136954819Y-68476190D02*
X135954819Y-68476190D01*
X135954819Y-68476190D02*
X136097676Y-68571428D01*
X136097676Y-68571428D02*
X136192914Y-68666666D01*
X136192914Y-68666666D02*
X136240533Y-68761904D01*
X136050057Y-67809523D02*
X136002438Y-67761904D01*
X136002438Y-67761904D02*
X135954819Y-67666666D01*
X135954819Y-67666666D02*
X135954819Y-67428571D01*
X135954819Y-67428571D02*
X136002438Y-67333333D01*
X136002438Y-67333333D02*
X136050057Y-67285714D01*
X136050057Y-67285714D02*
X136145295Y-67238095D01*
X136145295Y-67238095D02*
X136240533Y-67238095D01*
X136240533Y-67238095D02*
X136383390Y-67285714D01*
X136383390Y-67285714D02*
X136954819Y-67857142D01*
X136954819Y-67857142D02*
X136954819Y-67238095D01*
X110743333Y-59749580D02*
X110695714Y-59797200D01*
X110695714Y-59797200D02*
X110552857Y-59844819D01*
X110552857Y-59844819D02*
X110457619Y-59844819D01*
X110457619Y-59844819D02*
X110314762Y-59797200D01*
X110314762Y-59797200D02*
X110219524Y-59701961D01*
X110219524Y-59701961D02*
X110171905Y-59606723D01*
X110171905Y-59606723D02*
X110124286Y-59416247D01*
X110124286Y-59416247D02*
X110124286Y-59273390D01*
X110124286Y-59273390D02*
X110171905Y-59082914D01*
X110171905Y-59082914D02*
X110219524Y-58987676D01*
X110219524Y-58987676D02*
X110314762Y-58892438D01*
X110314762Y-58892438D02*
X110457619Y-58844819D01*
X110457619Y-58844819D02*
X110552857Y-58844819D01*
X110552857Y-58844819D02*
X110695714Y-58892438D01*
X110695714Y-58892438D02*
X110743333Y-58940057D01*
X111219524Y-59844819D02*
X111410000Y-59844819D01*
X111410000Y-59844819D02*
X111505238Y-59797200D01*
X111505238Y-59797200D02*
X111552857Y-59749580D01*
X111552857Y-59749580D02*
X111648095Y-59606723D01*
X111648095Y-59606723D02*
X111695714Y-59416247D01*
X111695714Y-59416247D02*
X111695714Y-59035295D01*
X111695714Y-59035295D02*
X111648095Y-58940057D01*
X111648095Y-58940057D02*
X111600476Y-58892438D01*
X111600476Y-58892438D02*
X111505238Y-58844819D01*
X111505238Y-58844819D02*
X111314762Y-58844819D01*
X111314762Y-58844819D02*
X111219524Y-58892438D01*
X111219524Y-58892438D02*
X111171905Y-58940057D01*
X111171905Y-58940057D02*
X111124286Y-59035295D01*
X111124286Y-59035295D02*
X111124286Y-59273390D01*
X111124286Y-59273390D02*
X111171905Y-59368628D01*
X111171905Y-59368628D02*
X111219524Y-59416247D01*
X111219524Y-59416247D02*
X111314762Y-59463866D01*
X111314762Y-59463866D02*
X111505238Y-59463866D01*
X111505238Y-59463866D02*
X111600476Y-59416247D01*
X111600476Y-59416247D02*
X111648095Y-59368628D01*
X111648095Y-59368628D02*
X111695714Y-59273390D01*
X107697142Y-64879580D02*
X107649523Y-64927200D01*
X107649523Y-64927200D02*
X107506666Y-64974819D01*
X107506666Y-64974819D02*
X107411428Y-64974819D01*
X107411428Y-64974819D02*
X107268571Y-64927200D01*
X107268571Y-64927200D02*
X107173333Y-64831961D01*
X107173333Y-64831961D02*
X107125714Y-64736723D01*
X107125714Y-64736723D02*
X107078095Y-64546247D01*
X107078095Y-64546247D02*
X107078095Y-64403390D01*
X107078095Y-64403390D02*
X107125714Y-64212914D01*
X107125714Y-64212914D02*
X107173333Y-64117676D01*
X107173333Y-64117676D02*
X107268571Y-64022438D01*
X107268571Y-64022438D02*
X107411428Y-63974819D01*
X107411428Y-63974819D02*
X107506666Y-63974819D01*
X107506666Y-63974819D02*
X107649523Y-64022438D01*
X107649523Y-64022438D02*
X107697142Y-64070057D01*
X108649523Y-64974819D02*
X108078095Y-64974819D01*
X108363809Y-64974819D02*
X108363809Y-63974819D01*
X108363809Y-63974819D02*
X108268571Y-64117676D01*
X108268571Y-64117676D02*
X108173333Y-64212914D01*
X108173333Y-64212914D02*
X108078095Y-64260533D01*
X109268571Y-63974819D02*
X109363809Y-63974819D01*
X109363809Y-63974819D02*
X109459047Y-64022438D01*
X109459047Y-64022438D02*
X109506666Y-64070057D01*
X109506666Y-64070057D02*
X109554285Y-64165295D01*
X109554285Y-64165295D02*
X109601904Y-64355771D01*
X109601904Y-64355771D02*
X109601904Y-64593866D01*
X109601904Y-64593866D02*
X109554285Y-64784342D01*
X109554285Y-64784342D02*
X109506666Y-64879580D01*
X109506666Y-64879580D02*
X109459047Y-64927200D01*
X109459047Y-64927200D02*
X109363809Y-64974819D01*
X109363809Y-64974819D02*
X109268571Y-64974819D01*
X109268571Y-64974819D02*
X109173333Y-64927200D01*
X109173333Y-64927200D02*
X109125714Y-64879580D01*
X109125714Y-64879580D02*
X109078095Y-64784342D01*
X109078095Y-64784342D02*
X109030476Y-64593866D01*
X109030476Y-64593866D02*
X109030476Y-64355771D01*
X109030476Y-64355771D02*
X109078095Y-64165295D01*
X109078095Y-64165295D02*
X109125714Y-64070057D01*
X109125714Y-64070057D02*
X109173333Y-64022438D01*
X109173333Y-64022438D02*
X109268571Y-63974819D01*
X115813333Y-68699580D02*
X115765714Y-68747200D01*
X115765714Y-68747200D02*
X115622857Y-68794819D01*
X115622857Y-68794819D02*
X115527619Y-68794819D01*
X115527619Y-68794819D02*
X115384762Y-68747200D01*
X115384762Y-68747200D02*
X115289524Y-68651961D01*
X115289524Y-68651961D02*
X115241905Y-68556723D01*
X115241905Y-68556723D02*
X115194286Y-68366247D01*
X115194286Y-68366247D02*
X115194286Y-68223390D01*
X115194286Y-68223390D02*
X115241905Y-68032914D01*
X115241905Y-68032914D02*
X115289524Y-67937676D01*
X115289524Y-67937676D02*
X115384762Y-67842438D01*
X115384762Y-67842438D02*
X115527619Y-67794819D01*
X115527619Y-67794819D02*
X115622857Y-67794819D01*
X115622857Y-67794819D02*
X115765714Y-67842438D01*
X115765714Y-67842438D02*
X115813333Y-67890057D01*
X116384762Y-68223390D02*
X116289524Y-68175771D01*
X116289524Y-68175771D02*
X116241905Y-68128152D01*
X116241905Y-68128152D02*
X116194286Y-68032914D01*
X116194286Y-68032914D02*
X116194286Y-67985295D01*
X116194286Y-67985295D02*
X116241905Y-67890057D01*
X116241905Y-67890057D02*
X116289524Y-67842438D01*
X116289524Y-67842438D02*
X116384762Y-67794819D01*
X116384762Y-67794819D02*
X116575238Y-67794819D01*
X116575238Y-67794819D02*
X116670476Y-67842438D01*
X116670476Y-67842438D02*
X116718095Y-67890057D01*
X116718095Y-67890057D02*
X116765714Y-67985295D01*
X116765714Y-67985295D02*
X116765714Y-68032914D01*
X116765714Y-68032914D02*
X116718095Y-68128152D01*
X116718095Y-68128152D02*
X116670476Y-68175771D01*
X116670476Y-68175771D02*
X116575238Y-68223390D01*
X116575238Y-68223390D02*
X116384762Y-68223390D01*
X116384762Y-68223390D02*
X116289524Y-68271009D01*
X116289524Y-68271009D02*
X116241905Y-68318628D01*
X116241905Y-68318628D02*
X116194286Y-68413866D01*
X116194286Y-68413866D02*
X116194286Y-68604342D01*
X116194286Y-68604342D02*
X116241905Y-68699580D01*
X116241905Y-68699580D02*
X116289524Y-68747200D01*
X116289524Y-68747200D02*
X116384762Y-68794819D01*
X116384762Y-68794819D02*
X116575238Y-68794819D01*
X116575238Y-68794819D02*
X116670476Y-68747200D01*
X116670476Y-68747200D02*
X116718095Y-68699580D01*
X116718095Y-68699580D02*
X116765714Y-68604342D01*
X116765714Y-68604342D02*
X116765714Y-68413866D01*
X116765714Y-68413866D02*
X116718095Y-68318628D01*
X116718095Y-68318628D02*
X116670476Y-68271009D01*
X116670476Y-68271009D02*
X116575238Y-68223390D01*
D12*
%TO.C,C2*%
X124640000Y-59372164D02*
X124640000Y-59587836D01*
X125360000Y-59372164D02*
X125360000Y-59587836D01*
D10*
%TO.C,USB*%
X136075000Y-61875000D02*
X136075000Y-62600000D01*
X136075000Y-62600000D02*
X136500000Y-62600000D01*
X136500000Y-59000000D02*
X136500000Y-58000000D01*
X136500000Y-62600000D02*
X136500000Y-63600000D01*
X138250000Y-64950000D02*
X139650000Y-64950000D01*
X139650000Y-56650000D02*
X138250000Y-56650000D01*
X142050000Y-64950000D02*
X142200000Y-64950000D01*
X142200000Y-56650000D02*
X142050000Y-56650000D01*
X142200000Y-56950000D02*
X142200000Y-56650000D01*
X142200000Y-64650000D02*
X142650000Y-64650000D01*
X142200000Y-64950000D02*
X142200000Y-64650000D01*
X142650000Y-56950000D02*
X142200000Y-56950000D01*
D12*
%TO.C,C5*%
X112290000Y-63262836D02*
X112290000Y-63047164D01*
X113010000Y-63262836D02*
X113010000Y-63047164D01*
%TO.C,FB1*%
X113490000Y-68837221D02*
X113490000Y-69162779D01*
X114510000Y-68837221D02*
X114510000Y-69162779D01*
%TO.C,R2*%
X129600000Y-60106359D02*
X129600000Y-60413641D01*
X130360000Y-60106359D02*
X130360000Y-60413641D01*
%TO.C,C3*%
X121767836Y-67810000D02*
X121552164Y-67810000D01*
X121767836Y-68530000D02*
X121552164Y-68530000D01*
%TO.C,U1*%
X115140000Y-58552500D02*
X115140000Y-59002500D01*
X115140000Y-65772500D02*
X115140000Y-65322500D01*
X115590000Y-58552500D02*
X115140000Y-58552500D01*
X115590000Y-65772500D02*
X115140000Y-65772500D01*
X121910000Y-58552500D02*
X122360000Y-58552500D01*
X121910000Y-65772500D02*
X122360000Y-65772500D01*
X122360000Y-58552500D02*
X122360000Y-59002500D01*
X122360000Y-65772500D02*
X122360000Y-65322500D01*
X114550000Y-59002500D02*
X114210000Y-58532500D01*
X114890000Y-58532500D01*
X114550000Y-59002500D01*
G36*
X114550000Y-59002500D02*
G01*
X114210000Y-58532500D01*
X114890000Y-58532500D01*
X114550000Y-59002500D01*
G37*
%TO.C,R5*%
X119836359Y-73120000D02*
X120143641Y-73120000D01*
X119836359Y-73880000D02*
X120143641Y-73880000D01*
%TO.C,R1*%
X110856359Y-55120000D02*
X111163641Y-55120000D01*
X110856359Y-55880000D02*
X111163641Y-55880000D01*
%TO.C,R3*%
X139620000Y-69143641D02*
X139620000Y-68836359D01*
X140380000Y-69143641D02*
X140380000Y-68836359D01*
%TO.C,UART*%
X107190000Y-48860000D02*
X107190000Y-51620000D01*
X114920000Y-48860000D02*
X107190000Y-48860000D01*
X114920000Y-48860000D02*
X114920000Y-51620000D01*
X114920000Y-51620000D02*
X107190000Y-51620000D01*
X116190000Y-48860000D02*
X117570000Y-48860000D01*
X117570000Y-48860000D02*
X117570000Y-50240000D01*
%TO.C,C4*%
X115859420Y-53990000D02*
X116140580Y-53990000D01*
X115859420Y-55010000D02*
X116140580Y-55010000D01*
%TO.C,C7*%
X112127836Y-69640000D02*
X111912164Y-69640000D01*
X112127836Y-70360000D02*
X111912164Y-70360000D01*
%TO.C,C6*%
X112107836Y-67640000D02*
X111892164Y-67640000D01*
X112107836Y-68360000D02*
X111892164Y-68360000D01*
%TO.C,C11*%
X129738748Y-64965000D02*
X130261252Y-64965000D01*
X129738748Y-66435000D02*
X130261252Y-66435000D01*
%TO.C,C1*%
X115912164Y-55640000D02*
X116127836Y-55640000D01*
X115912164Y-56360000D02*
X116127836Y-56360000D01*
%TO.C,C13*%
X112140000Y-59087836D02*
X112140000Y-58872164D01*
X112860000Y-59087836D02*
X112860000Y-58872164D01*
%TO.C,D1*%
X139265000Y-70802500D02*
X139265000Y-73087500D01*
X140735000Y-70802500D02*
X139265000Y-70802500D01*
X140735000Y-73087500D02*
X140735000Y-70802500D01*
%TO.C,U2*%
X127590000Y-70000000D02*
X127590000Y-73760000D01*
X127590000Y-73760000D02*
X128850000Y-73760000D01*
X134410000Y-70000000D02*
X134410000Y-73760000D01*
X134410000Y-73760000D02*
X133150000Y-73760000D01*
X134640000Y-68960000D02*
X134310000Y-68720000D01*
X134640000Y-68480000D01*
X134640000Y-68960000D01*
G36*
X134640000Y-68960000D02*
G01*
X134310000Y-68720000D01*
X134640000Y-68480000D01*
X134640000Y-68960000D01*
G37*
%TO.C,I2C*%
X113540000Y-79380000D02*
X113540000Y-78000000D01*
X114920000Y-79380000D02*
X113540000Y-79380000D01*
X116190000Y-76620000D02*
X123920000Y-76620000D01*
X116190000Y-79380000D02*
X116190000Y-76620000D01*
X116190000Y-79380000D02*
X123920000Y-79380000D01*
X123920000Y-79380000D02*
X123920000Y-76620000D01*
%TO.C,BOOT*%
X97600000Y-56300000D02*
X97600000Y-62000000D01*
X98610000Y-62600000D02*
X99400000Y-62600000D01*
X99400000Y-55700000D02*
X98610000Y-55700000D01*
X100450000Y-57550000D02*
X100450000Y-59250000D01*
X100450000Y-60550000D02*
X100450000Y-60750000D01*
%TO.C,Y1*%
X104980000Y-59120000D02*
X104980000Y-63120000D01*
X108280000Y-59120000D02*
X104980000Y-59120000D01*
%TO.C,R4*%
X117653641Y-73120000D02*
X117346359Y-73120000D01*
X117653641Y-73880000D02*
X117346359Y-73880000D01*
%TO.C,SWD*%
X121790000Y-48870000D02*
X121790000Y-51630000D01*
X129520000Y-48870000D02*
X121790000Y-48870000D01*
X129520000Y-48870000D02*
X129520000Y-51630000D01*
X129520000Y-51630000D02*
X121790000Y-51630000D01*
X130790000Y-48870000D02*
X132170000Y-48870000D01*
X132170000Y-48870000D02*
X132170000Y-50250000D01*
%TO.C,C12*%
X136265000Y-72211252D02*
X136265000Y-71688748D01*
X137735000Y-72211252D02*
X137735000Y-71688748D01*
%TO.C,C9*%
X109120000Y-59737836D02*
X109120000Y-59522164D01*
X109840000Y-59737836D02*
X109840000Y-59522164D01*
%TO.C,C10*%
X109140000Y-62627836D02*
X109140000Y-62412164D01*
X109860000Y-62627836D02*
X109860000Y-62412164D01*
%TO.C,C8*%
X115872164Y-69140000D02*
X116087836Y-69140000D01*
X115872164Y-69860000D02*
X116087836Y-69860000D01*
%TD*%
M02*
